<?xml version="1.0" encoding="utf-8"?>
<!-- Generator: Adobe Illustrator 16.0.0, SVG Export Plug-In . SVG Version: 6.00 Build 0)  -->
<!DOCTYPE svg PUBLIC "-//W3C//DTD SVG 1.1//EN" "http://www.w3.org/Graphics/SVG/1.1/DTD/svg11.dtd">
<svg version="1.1" xmlns="http://www.w3.org/2000/svg" xmlns:xlink="http://www.w3.org/1999/xlink" x="0px" y="0px"
	 width="40.167px" height="31.833px" viewBox="-4.09 -8.706 40.167 31.833" enable-background="new -4.09 -8.706 40.167 31.833"
	 xml:space="preserve">
<g id="Layer_2" display="none">
	
		<image display="inline" overflow="visible" width="1366" height="768" xlink:href="863E38E5.jpg"  transform="matrix(1 0 0 1 -666 -354)">
	</image>
	
		<image display="inline" overflow="visible" width="1366" height="768" xlink:href="863E38EB.jpg"  transform="matrix(1 0 0 1 -666.1255 -354.1255)">
	</image>
</g>
<g id="Layer_1" display="none">
	<g display="inline">
		<path fill="#FFFFFF" d="M407.48,274.496c-15.508,0-28.125-12.617-28.125-28.125s12.617-28.125,28.125-28.125
			s28.125,12.617,28.125,28.125S422.988,274.496,407.48,274.496z"/>
		<path fill="#111111" d="M407.48,219.246c14.957,0,27.125,12.168,27.125,27.125s-12.168,27.125-27.125,27.125
			s-27.125-12.168-27.125-27.125S392.523,219.246,407.48,219.246 M407.48,217.246c-16.086,0-29.125,13.04-29.125,29.125
			c0,16.086,13.039,29.125,29.125,29.125s29.125-13.039,29.125-29.125C436.605,230.286,423.566,217.246,407.48,217.246
			L407.48,217.246z"/>
	</g>
	<path display="inline" fill="#111111" d="M420.468,239.53l-12.987,11.778l-12.982-11.776c-0.838-0.759-2.377-0.762-3.213-0.001
		l-1.309,1.188c-0.381,0.345-0.589,0.792-0.589,1.263c0,0.47,0.208,0.917,0.587,1.26l15.693,14.236
		c0.412,0.375,0.979,0.582,1.595,0.582l0.219-0.008l0.22,0.008c0.619,0,1.185-0.205,1.592-0.576l15.695-14.24
		c0.378-0.343,0.586-0.79,0.586-1.261c0-0.472-0.208-0.92-0.586-1.264l-1.311-1.188C422.84,238.772,421.302,238.772,420.468,239.53z
		"/>
	<g display="inline">
		<path fill="#FFFFFF" d="M-641.25-263.333c-1.608,0-2.917-1.309-2.917-2.917s1.308-2.917,2.917-2.917h32.333
			c1.608,0,2.917,1.308,2.917,2.917s-1.309,2.917-2.917,2.917H-641.25z"/>
		<path fill="#111111" d="M-608.917-268.167c1.059,0,1.917,0.858,1.917,1.917s-0.858,1.917-1.917,1.917h-32.333
			c-1.059,0-1.917-0.858-1.917-1.917s0.858-1.917,1.917-1.917H-608.917 M-608.917-270.167h-32.333c-2.16,0-3.917,1.757-3.917,3.917
			s1.757,3.917,3.917,3.917h32.333c2.16,0,3.917-1.757,3.917-3.917S-606.757-270.167-608.917-270.167L-608.917-270.167z"/>
	</g>
	<g display="inline">
		<path fill="#FFFFFF" d="M-641.25-251.333c-1.608,0-2.917-1.309-2.917-2.917s1.308-2.917,2.917-2.917h32.333
			c1.608,0,2.917,1.308,2.917,2.917s-1.309,2.917-2.917,2.917H-641.25z"/>
		<path fill="#111111" d="M-608.917-256.167c1.059,0,1.917,0.858,1.917,1.917s-0.858,1.917-1.917,1.917h-32.333
			c-1.059,0-1.917-0.858-1.917-1.917s0.858-1.917,1.917-1.917H-608.917 M-608.917-258.167h-32.333c-2.16,0-3.917,1.757-3.917,3.917
			s1.757,3.917,3.917,3.917h32.333c2.16,0,3.917-1.757,3.917-3.917S-606.757-258.167-608.917-258.167L-608.917-258.167z"/>
	</g>
	<g display="inline">
		<path fill="#FFFFFF" d="M-641.25-239.333c-1.608,0-2.917-1.309-2.917-2.917s1.308-2.917,2.917-2.917h32.333
			c1.608,0,2.917,1.308,2.917,2.917s-1.309,2.917-2.917,2.917H-641.25z"/>
		<path fill="#111111" d="M-608.917-244.167c1.059,0,1.917,0.858,1.917,1.917s-0.858,1.917-1.917,1.917h-32.333
			c-1.059,0-1.917-0.858-1.917-1.917s0.858-1.917,1.917-1.917H-608.917 M-608.917-246.167h-32.333c-2.16,0-3.917,1.757-3.917,3.917
			s1.757,3.917,3.917,3.917h32.333c2.16,0,3.917-1.757,3.917-3.917S-606.757-246.167-608.917-246.167L-608.917-246.167z"/>
	</g>
</g>
<g id="open" display="none">
	<g display="inline">
		<path fill="#FFFFFF" d="M-0.174-1.873c-1.608,0-2.917-1.309-2.917-2.917c0-1.607,1.308-2.916,2.917-2.916h32.333
			c1.608,0,2.917,1.309,2.917,2.916c0,1.608-1.309,2.917-2.917,2.917H-0.174z"/>
		<path fill="#111111" d="M32.159-6.706c1.059,0,1.917,0.857,1.917,1.916s-0.858,1.917-1.917,1.917H-0.174
			c-1.059,0-1.917-0.858-1.917-1.917s0.858-1.916,1.917-1.916H32.159 M32.159-8.706H-0.174c-2.16,0-3.917,1.757-3.917,3.916
			c0,2.16,1.757,3.917,3.917,3.917h32.333c2.159,0,3.917-1.757,3.917-3.917C36.076-6.949,34.318-8.706,32.159-8.706L32.159-8.706z"
			/>
	</g>
	<g display="inline">
		<path fill="#FFFFFF" d="M-0.174,10.127c-1.608,0-2.917-1.309-2.917-2.917c0-1.607,1.308-2.916,2.917-2.916h32.333
			c1.608,0,2.917,1.309,2.917,2.916c0,1.608-1.309,2.917-2.917,2.917H-0.174z"/>
		<path fill="#111111" d="M32.159,5.294c1.059,0,1.917,0.857,1.917,1.916s-0.858,1.917-1.917,1.917H-0.174
			c-1.059,0-1.917-0.858-1.917-1.917s0.858-1.916,1.917-1.916H32.159 M32.159,3.294H-0.174c-2.16,0-3.917,1.757-3.917,3.916
			c0,2.16,1.757,3.917,3.917,3.917h32.333c2.159,0,3.917-1.757,3.917-3.917C36.076,5.051,34.318,3.294,32.159,3.294L32.159,3.294z"
			/>
	</g>
	<g display="inline">
		<path fill="#FFFFFF" d="M-0.174,22.127c-1.608,0-2.917-1.309-2.917-2.917c0-1.607,1.308-2.916,2.917-2.916h32.333
			c1.608,0,2.917,1.309,2.917,2.916c0,1.608-1.309,2.917-2.917,2.917H-0.174z"/>
		<path fill="#111111" d="M32.159,17.294c1.059,0,1.917,0.857,1.917,1.916s-0.858,1.917-1.917,1.917H-0.174
			c-1.059,0-1.917-0.858-1.917-1.917s0.858-1.916,1.917-1.916H32.159 M32.159,15.294H-0.174c-2.16,0-3.917,1.757-3.917,3.916
			c0,2.16,1.757,3.917,3.917,3.917h32.333c2.159,0,3.917-1.757,3.917-3.917C36.076,17.051,34.318,15.294,32.159,15.294
			L32.159,15.294z"/>
	</g>
</g>
<g id="closed">
	<path fill="#FFFFFF" d="M-0.174-0.123c-1.608,0-2.917-1.309-2.917-2.917c0-1.607,1.308-2.916,2.917-2.916h32.333
		c1.608,0,2.917,1.309,2.917,2.916c0,1.608-1.309,2.917-2.917,2.917H-0.174z"/>
	<path fill="#FFFFFF" d="M-0.174,10.127c-1.608,0-2.917-1.309-2.917-2.917c0-1.607,1.308-2.916,2.917-2.916h32.333
		c1.608,0,2.917,1.309,2.917,2.916c0,1.608-1.309,2.917-2.917,2.917H-0.174z"/>
	<path fill="#FFFFFF" d="M-0.174,20.377c-1.608,0-2.917-1.309-2.917-2.917c0-1.607,1.308-2.916,2.917-2.916h32.333
		c1.608,0,2.917,1.309,2.917,2.916c0,1.608-1.309,2.917-2.917,2.917H-0.174z"/>
</g>
<g id="Layer_5">
</g>
</svg>
