<?xml version="1.0" encoding="utf-8"?>
<!-- Generator: Adobe Illustrator 16.0.0, SVG Export Plug-In . SVG Version: 6.00 Build 0)  -->
<!DOCTYPE svg PUBLIC "-//W3C//DTD SVG 1.1//EN" "http://www.w3.org/Graphics/SVG/1.1/DTD/svg11.dtd">
<svg version="1.1" xmlns="http://www.w3.org/2000/svg" xmlns:xlink="http://www.w3.org/1999/xlink" x="0px" y="0px"
	 width="58.237px" height="58.25px" viewBox="-13.125 -13.125 58.237 58.25" enable-background="new -13.125 -13.125 58.237 58.25"
	 xml:space="preserve">
<g id="Layer_2" display="none">
	
		<image display="inline" overflow="visible" width="1366" height="768" xlink:href="4791B888.jpg"  transform="matrix(1 0 0 1 -666 -354)">
	</image>
</g>
<g id="Layer_1">
	<g>
		<path fill="#FFFFFF" d="M16,44.125C0.492,44.125-12.125,31.508-12.125,16c0-15.508,12.617-28.125,28.125-28.125
			c15.508,0,28.125,12.617,28.125,28.125C44.125,31.508,31.508,44.125,16,44.125z"/>
		<path fill="#111111" d="M16-11.125c14.957,0,27.125,12.168,27.125,27.125c0,14.958-12.168,27.125-27.125,27.125
			S-11.125,30.957-11.125,16C-11.125,1.042,1.043-11.125,16-11.125 M16-13.125c-16.085,0-29.125,13.04-29.125,29.125
			c0,16.086,13.04,29.125,29.125,29.125c16.086,0,29.125-13.039,29.125-29.125C45.125-0.085,32.086-13.125,16-13.125L16-13.125z"/>
	</g>
	<path fill="#111111" d="M28.987,9.159L16,20.938L3.018,9.161C2.179,8.402,0.64,8.399-0.195,9.16l-1.309,1.188
		c-0.38,0.345-0.588,0.792-0.588,1.263c0,0.47,0.208,0.917,0.586,1.26l15.693,14.237c0.413,0.375,0.979,0.582,1.595,0.582
		l0.219-0.008l0.22,0.008c0.619,0,1.184-0.205,1.591-0.576l15.695-14.241c0.378-0.343,0.586-0.79,0.586-1.261
		c0-0.472-0.208-0.92-0.586-1.264l-1.311-1.188C31.359,8.401,29.821,8.401,28.987,9.159z"/>
</g>
</svg>
