<?xml version="1.0" encoding="utf-8"?>
<!-- Generator: Adobe Illustrator 16.0.0, SVG Export Plug-In . SVG Version: 6.00 Build 0)  -->
<!DOCTYPE svg PUBLIC "-//W3C//DTD SVG 1.1//EN" "http://www.w3.org/Graphics/SVG/1.1/DTD/svg11.dtd">
<svg version="1.1" id="Layer_1" xmlns="http://www.w3.org/2000/svg" xmlns:xlink="http://www.w3.org/1999/xlink" x="0px" y="0px"
	 width="512px" height="512px" viewBox="0 0 512 512" enable-background="new 0 0 512 512" xml:space="preserve">
<path fill="#fff" d="M512,256C512,114.615,397.385,0,256,0S0,114.615,0,256s114.615,256,256,256S512,397.385,512,256z
	 M233.372,406.628l-128-128.001C99.124,272.379,96,264.189,96,256c0-8.189,3.124-16.379,9.372-22.627
	c12.497-12.497,32.759-12.497,45.256,0L224,306.745V128c0-17.673,14.327-32,32-32s32,14.327,32,32v178.745l73.373-73.373
	c12.497-12.497,32.758-12.497,45.255,0s12.497,32.758,0,45.254l-128,128.001C266.131,419.124,245.869,419.124,233.372,406.628z"/>
</svg>
