<?xml version="1.0" encoding="utf-8"?>
<!-- Generator: Adobe Illustrator 16.0.0, SVG Export Plug-In . SVG Version: 6.00 Build 0)  -->
<!DOCTYPE svg PUBLIC "-//W3C//DTD SVG 1.1//EN" "http://www.w3.org/Graphics/SVG/1.1/DTD/svg11.dtd">
<svg version="1.1" xmlns="http://www.w3.org/2000/svg" xmlns:xlink="http://www.w3.org/1999/xlink" x="0px" y="0px"
	 width="842.729px" height="731.213px" viewBox="0 0 842.729 731.213" enable-background="new 0 0 842.729 731.213"
	 xml:space="preserve">
<g id="Layer_1" display="none">
</g>
<g id="Layer_2" display="none">
	<polygon display="inline" fill="none" stroke="#000000" stroke-miterlimit="10" points="839.44,652.89 59.744,652.827 
		449.646,-22.378 	"/>
	<line display="inline" fill="none" stroke="#000000" stroke-miterlimit="10" x1="471.5" y1="578.39" x2="471.5" y2="503.39"/>
	<line display="inline" fill="none" stroke="#000000" stroke-miterlimit="10" x1="567.597" y1="332.56" x2="502.646" y2="370.06"/>
	
		<line display="inline" fill="none" stroke="#000000" stroke-miterlimit="10" x1="337.791" y1="321.888" x2="402.743" y2="359.388"/>
	<line display="inline" fill="none" stroke="#000000" stroke-miterlimit="10" x1="500.646" y1="38.622" x2="110.744" y2="713.827"/>
	
		<line display="inline" fill="none" stroke="#000000" stroke-miterlimit="10" x1="547.646" y1="105.622" x2="157.744" y2="780.827"/>
	<line display="inline" fill="none" stroke="#000000" stroke-miterlimit="10" x1="59.744" y1="578.827" x2="839.44" y2="578.89"/>
	<line display="inline" fill="none" stroke="#000000" stroke-miterlimit="10" x1="59.744" y1="503.827" x2="839.44" y2="503.89"/>
	<line display="inline" fill="none" stroke="#000000" stroke-miterlimit="10" x1="381.646" y1="7.622" x2="771.44" y2="682.89"/>
	<line display="inline" fill="none" stroke="#000000" stroke-miterlimit="10" x1="337.646" y1="85.622" x2="727.44" y2="760.89"/>
	<line display="inline" fill="none" stroke="#000000" stroke-miterlimit="10" x1="406.98" y1="51.508" x2="492.751" y2="52.294"/>
	<line display="inline" fill="none" stroke="#000000" stroke-miterlimit="10" x1="796.725" y1="578.89" x2="754.123" y2="652.89"/>
	<line display="inline" fill="none" stroke="#000000" stroke-miterlimit="10" x1="102.44" y1="578.89" x2="145.933" y2="652.89"/>
</g>
<g id="outtershadow" display="none">
	
		<image display="inline" overflow="visible" width="1200" height="1200" xlink:href="20A799D.jpg"  transform="matrix(1 0 0 1 -227.8462 -165.7729)">
	</image>
	<g display="inline">
		
			<linearGradient id="SVGID_1_" gradientUnits="userSpaceOnUse" x1="304.6333" y1="467.3896" x2="304.6333" y2="-62.4912" gradientTransform="matrix(-1 0 0 -1 915.7051 707.2109)">
			<stop  offset="0.629" style="stop-color:#000000;stop-opacity:0"/>
			<stop  offset="1" style="stop-color:#000000;stop-opacity:0.3"/>
		</linearGradient>
		<polygon fill="url(#SVGID_1_)" points="501.033,769.703 416.438,768.09 675.784,316.822 805.705,239.822 		"/>
		
			<linearGradient id="SVGID_2_" gradientUnits="userSpaceOnUse" x1="298.4565" y1="655.9541" x2="298.4565" y2="126.0576" gradientTransform="matrix(0.5 -0.866 0.866 0.5 -203.7671 530.7222)">
			<stop  offset="0.629" style="stop-color:#000000;stop-opacity:0"/>
			<stop  offset="1" style="stop-color:#000000;stop-opacity:0.3"/>
		</linearGradient>
		<polygon fill="url(#SVGID_2_)" points="109.645,239.996 153.34,167.541 414.477,617.775 416.199,768.79 		"/>
		
			<linearGradient id="SVGID_3_" gradientUnits="userSpaceOnUse" x1="-66.6631" y1="182.0835" x2="-66.6631" y2="-347.8052" gradientTransform="matrix(0.5 0.866 -0.866 0.5 442.271 302.8433)">
			<stop  offset="0.629" style="stop-color:#000000;stop-opacity:0"/>
			<stop  offset="1" style="stop-color:#000000;stop-opacity:0.3"/>
		</linearGradient>
		<polygon fill="url(#SVGID_3_)" points="765.16,166.508 806.061,240.578 285.578,241.611 153.934,167.595 		"/>
	</g>
</g>
<g id="fill">
</g>
<g id="innershadow" display="none">
	<g display="inline">
		
			<linearGradient id="SVGID_4_" gradientUnits="userSpaceOnUse" x1="110" y1="430.3213" x2="629.6582" y2="430.3213" gradientTransform="matrix(-1 0 0 -1 915.7051 707.2109)">
			<stop  offset="0.629" style="stop-color:#000000;stop-opacity:0"/>
			<stop  offset="1" style="stop-color:#000000;stop-opacity:0.5"/>
		</linearGradient>
		<polygon fill="url(#SVGID_4_)" points="330.705,314.39 286.047,239.39 805.705,239.39 675.784,314.39 		"/>
		
			<linearGradient id="SVGID_5_" gradientUnits="userSpaceOnUse" x1="-385.5313" y1="314.249" x2="134.1372" y2="314.249" gradientTransform="matrix(0.5 -0.866 0.866 0.5 304.5845 258.3433)">
			<stop  offset="0.629" style="stop-color:#000000;stop-opacity:0"/>
			<stop  offset="1" style="stop-color:#000000;stop-opacity:0.5"/>
		</linearGradient>
		<polygon fill="url(#SVGID_5_)" points="588.985,319.228 676.266,318.053 416.438,768.09 416.445,618.075 		"/>
		
			<linearGradient id="SVGID_6_" gradientUnits="userSpaceOnUse" x1="-620.5264" y1="-3.5562" x2="-100.8574" y2="-3.5562" gradientTransform="matrix(0.5 0.866 -0.866 0.5 496.0952 687.4585)">
			<stop  offset="0.629" style="stop-color:#000000;stop-opacity:0"/>
			<stop  offset="1" style="stop-color:#000000;stop-opacity:0.5"/>
		</linearGradient>
		<polygon fill="url(#SVGID_6_)" points="458.891,540.916 416.268,617.09 156.438,167.054 286.352,242.068 		"/>
	</g>
</g>
<g id="outline">
	<polygon fill="#FFFFFF" points="661.916,207.39 594.912,207.39 369.623,592.066 46.576,30.511 13.424,86.158 370.352,707.458 	"/>
	<polygon fill="#FFFFFF" points="265.595,172.39 219.214,92.39 842.729,92.39 472.747,731.213 380.468,730.226 703.575,172.39 	"/>
	<line fill="#FFFFFF" x1="692" y1="172.39" x2="693" y2="172.39"/>
	<polygon fill="#FFFFFF" points="57.366,0.39 369.71,540.679 417.297,458.056 199.924,80.39 210.288,80.39 209.569,79.151 
		210.313,80.39 844.435,80.39 796.189,0.39 	"/>
</g>
<g id="text" display="none">
	<g display="inline">
		<linearGradient id="SVGID_7_" gradientUnits="userSpaceOnUse" x1="94.7925" y1="149.8701" x2="94.7925" y2="55.5137">
			<stop  offset="0.4355" style="stop-color:#000000"/>
			<stop  offset="1" style="stop-color:#000000;stop-opacity:0"/>
		</linearGradient>
		<path fill="url(#SVGID_7_)" d="M130.192,89.401c0,3.275-0.462,6.425-1.386,9.448c-0.84,3.023-2.059,5.838-3.653,8.44
			c-3.023,4.787-7.055,8.651-12.094,11.59c-5.124,2.94-10.708,4.409-16.755,4.409c-0.336,0-0.84,0-1.512,0
			c2.602,5.964,6.551,14.824,11.842,26.581c-1.596,0-3.99,0-7.181,0c-2.604-5.878-6.594-14.739-11.968-26.581
			c-4.787,0-12.011,0-21.668,0c0,5.964,0,14.824,0,26.581c-1.429,0-3.571,0-6.425,0c0-7.894,0-19.693,0-35.399
			c0-13.102,0-32.754,0-58.957c3.947,0,6.173,0,6.677,0s2.52,0,6.047,0c0.923,0,1.972,0,3.149,0c1.175,0,2.561,0,4.157,0
			c2.016,0,4.409,0,7.181,0s6.003,0,9.7,0c3.275,0,6.425,0.421,9.448,1.26c3.023,0.925,5.836,2.185,8.44,3.779
			c4.787,3.023,8.649,7.055,11.59,12.094C128.722,77.771,130.192,83.354,130.192,89.401z M65.818,116.864c3.275,0,5.122,0,5.543,0
			c0.419,0,2.098,0,5.039,0c0.671,0,1.512,0,2.52,0s2.183,0,3.527,0c1.594,0,3.527,0,5.795,0s4.955,0,8.063,0
			c7.559,0,14.025-2.687,19.4-8.063c5.374-5.291,8.063-11.757,8.063-19.4c0-7.559-2.689-14.024-8.063-19.4
			c-5.375-5.374-11.842-8.063-19.4-8.063c-6.803,0-16.965,0-30.486,0c0,3.192,0,6.216,0,9.07c0,2.856,0,5.712,0,8.566
			c0,5.208,0,10.708,0,16.503C65.818,101.79,65.818,108.719,65.818,116.864z"/>
		<linearGradient id="SVGID_8_" gradientUnits="userSpaceOnUse" x1="185.7954" y1="149.8701" x2="185.7954" y2="55.5137">
			<stop  offset="0.4355" style="stop-color:#000000"/>
			<stop  offset="1" style="stop-color:#000000;stop-opacity:0"/>
		</linearGradient>
		<path fill="url(#SVGID_8_)" d="M185.858,55.514c4.535,0,8.901,0.63,13.102,1.89c4.199,1.177,8.104,2.897,11.716,5.165
			c6.718,4.2,12.094,9.826,16.125,16.881c4.114,7.055,6.173,14.782,6.173,23.18c0,4.62-0.63,9.029-1.89,13.228
			c-1.177,4.2-2.897,8.105-5.165,11.716c-4.201,6.72-9.826,12.094-16.881,16.125c-7.055,4.116-14.783,6.173-23.18,6.173
			c-8.484,0-16.251-2.057-23.306-6.173c-7.055-4.031-12.682-9.405-16.881-16.125c-2.268-3.61-3.99-7.516-5.165-11.716
			c-1.26-4.198-1.89-8.607-1.89-13.228c0-4.535,0.63-8.901,1.89-13.102c1.175-4.198,2.897-8.104,5.165-11.716
			c4.199-6.718,9.826-12.094,16.881-16.125C169.607,57.572,177.375,55.514,185.858,55.514z M185.858,143.445
			c3.862,0,7.641-0.545,11.338-1.638c3.61-1.091,6.97-2.603,10.078-4.535c5.795-3.527,10.456-8.355,13.983-14.487
			c3.527-6.047,5.291-12.765,5.291-20.156c0-3.862-0.547-7.642-1.638-11.338c-1.008-3.61-2.478-6.97-4.409-10.078
			c-3.612-5.795-8.484-10.456-14.613-13.983c-6.047-3.527-12.724-5.291-20.03-5.291c-3.949,0-7.728,0.547-11.338,1.638
			c-3.697,1.008-7.098,2.479-10.204,4.409c-5.795,3.612-10.456,8.483-13.983,14.613c-3.527,6.047-5.291,12.724-5.291,20.03
			c0,3.948,0.545,7.728,1.638,11.338c1.008,3.696,2.476,7.098,4.409,10.204c3.61,5.795,8.44,10.456,14.487,13.983
			C171.706,141.682,178.467,143.445,185.858,143.445z"/>
		<linearGradient id="SVGID_9_" gradientUnits="userSpaceOnUse" x1="276.7983" y1="149.8701" x2="276.7983" y2="55.5137">
			<stop  offset="0.4355" style="stop-color:#000000"/>
			<stop  offset="1" style="stop-color:#000000;stop-opacity:0"/>
		</linearGradient>
		<path fill="url(#SVGID_9_)" d="M241.399,115.982c0-3.275,0.462-6.425,1.386-9.448c0.84-3.023,2.059-5.838,3.653-8.44
			c3.023-4.787,7.055-8.651,12.094-11.59c5.124-2.94,10.708-4.409,16.755-4.409c0.336,0,0.84,0,1.512,0
			c-2.602-5.964-6.551-14.824-11.842-26.581c1.596,0,3.99,0,7.181,0c2.604,5.878,6.594,14.739,11.968,26.581
			c4.787,0,12.011,0,21.668,0c0-5.964,0-14.824,0-26.581c1.429,0,3.571,0,6.425,0c0,7.894,0,19.693,0,35.399
			c0,13.102,0,32.754,0,58.957c-3.947,0-6.173,0-6.677,0s-2.52,0-6.047,0c-0.923,0-1.972,0-3.149,0c-1.175,0-2.561,0-4.157,0
			c-2.016,0-4.409,0-7.181,0s-6.003,0-9.7,0c-3.275,0-6.425-0.421-9.448-1.26c-3.023-0.925-5.836-2.185-8.44-3.779
			c-4.787-3.023-8.649-7.055-11.59-12.094C242.869,127.613,241.399,122.029,241.399,115.982z M305.773,88.52
			c-3.275,0-5.122,0-5.543,0c-0.419,0-2.098,0-5.039,0c-0.671,0-1.512,0-2.52,0s-2.183,0-3.527,0c-1.594,0-3.527,0-5.795,0
			s-4.955,0-8.063,0c-7.559,0-14.025,2.687-19.4,8.063c-5.374,5.291-8.063,11.757-8.063,19.4c0,7.559,2.689,14.024,8.063,19.4
			c5.375,5.374,11.842,8.063,19.4,8.063c6.803,0,16.965,0,30.486,0c0-3.192,0-6.216,0-9.07c0-2.856,0-5.712,0-8.566
			c0-5.208,0-10.708,0-16.503C305.773,103.594,305.773,96.665,305.773,88.52z"/>
		<linearGradient id="SVGID_10_" gradientUnits="userSpaceOnUse" x1="356.0225" y1="149.8701" x2="356.0225" y2="55.5137">
			<stop  offset="0.4355" style="stop-color:#000000"/>
			<stop  offset="1" style="stop-color:#000000;stop-opacity:0"/>
		</linearGradient>
		<path fill="url(#SVGID_10_)" d="M356.022,115.856c4.787-10.078,14.361-30.191,28.723-60.343c1.09,0,3.317,0,6.677,0
			c-7.139,15.034-17.847,37.626-32.124,67.775c0,5.964,0,14.824,0,26.581c-1.429,0-3.612,0-6.551,0c0-5.878,0-14.739,0-26.581
			c-7.139-15.032-17.847-37.624-32.124-67.775c1.512,0,3.736,0,6.677,0C333.681,68.952,343.255,89.066,356.022,115.856z"/>
		<linearGradient id="SVGID_11_" gradientUnits="userSpaceOnUse" x1="441.9712" y1="149.7441" x2="441.9712" y2="55.7656">
			<stop  offset="0.4355" style="stop-color:#000000"/>
			<stop  offset="1" style="stop-color:#000000;stop-opacity:0"/>
		</linearGradient>
		<path fill="url(#SVGID_11_)" d="M427.043,65.34c1.931-4.114,5.039-6.97,9.322-8.566c1.846-0.671,3.736-1.008,5.669-1.008
			c2.268,0,4.535,0.547,6.803,1.638l-2.016,4.409l-0.63,1.512c-2.52-1.175-5.083-1.301-7.685-0.378
			c-2.52,0.925-4.368,2.646-5.543,5.165c-1.177,2.437-1.303,4.956-0.378,7.559c0.923,2.604,2.646,4.494,5.165,5.669l6.551,2.771
			l2.268,0.882c2.939,1.429,5.584,3.149,7.937,5.165c2.35,2.101,4.366,4.452,6.047,7.055c3.106,4.704,4.913,9.995,5.417,15.873
			c0.083,1.008,0.126,1.975,0.126,2.897c0,4.787-1.051,9.491-3.149,14.109c-2.604,5.543-6.299,9.995-11.086,13.354
			c-4.787,3.36-9.996,5.376-15.621,6.047c-1.344,0.169-2.689,0.252-4.031,0.252c-1.764,0-3.527-0.167-5.291-0.504
			c-3.108-0.419-6.131-1.343-9.07-2.771l2.016-4.283l0.756-1.512c6.885,3.192,13.857,3.486,20.912,0.882
			c7.137-2.603,12.346-7.348,15.621-14.235c3.191-6.803,3.484-13.772,0.882-20.912c-2.604-7.138-7.35-12.303-14.235-15.495
			l-6.551-2.771l-2.268-0.882c-4.116-1.931-6.929-5.039-8.44-9.322C424.943,73.654,425.11,69.456,427.043,65.34z"/>
		<linearGradient id="SVGID_12_" gradientUnits="userSpaceOnUse" x1="509.9199" y1="149.8701" x2="509.9199" y2="55.5137">
			<stop  offset="0.4355" style="stop-color:#000000"/>
			<stop  offset="1" style="stop-color:#000000;stop-opacity:0"/>
		</linearGradient>
		<path fill="url(#SVGID_12_)" d="M480.946,55.514c0,11.338,0,33.931,0,67.775c9.657,0,28.974,0,57.949,0
			c0-15.032,0-37.624,0-67.775c1.428,0,3.568,0,6.426,0c0,20.997,0,52.449,0,94.356c-1.43,0-3.57,0-6.426,0c0-4.45,0-11.127,0-20.03
			c-12.85,0-32.166,0-57.949,0c0,4.452,0,11.129,0,20.03c-1.429,0-3.571,0-6.425,0c0-20.995,0-52.447,0-94.356
			C475.948,55.514,478.09,55.514,480.946,55.514z"/>
		<linearGradient id="SVGID_13_" gradientUnits="userSpaceOnUse" x1="556.958" y1="149.8701" x2="556.958" y2="55.5137">
			<stop  offset="0.4355" style="stop-color:#000000"/>
			<stop  offset="1" style="stop-color:#000000;stop-opacity:0"/>
		</linearGradient>
		<path fill="url(#SVGID_13_)" d="M560.17,55.514c0,15.706,0,47.158,0,94.356h-3.148h-3.275c0-20.995,0-52.447,0-94.356
			C555.172,55.514,557.314,55.514,560.17,55.514z"/>
		<linearGradient id="SVGID_14_" gradientUnits="userSpaceOnUse" x1="603.9951" y1="149.8701" x2="603.9951" y2="55.5137">
			<stop  offset="0.4355" style="stop-color:#000000"/>
			<stop  offset="1" style="stop-color:#000000;stop-opacity:0"/>
		</linearGradient>
		<path fill="url(#SVGID_14_)" d="M603.994,132.737c4.871-12.85,14.529-38.59,28.975-77.224c1.092,0,3.232,0,6.426,0
			c-7.896,20.997-19.695,52.449-35.4,94.356c-7.895-20.995-19.695-52.447-35.398-94.356c1.426,0,3.568,0,6.424,0
			C581.486,72.646,591.145,98.389,603.994,132.737z"/>
		<linearGradient id="SVGID_15_" gradientUnits="userSpaceOnUse" x1="683.2197" y1="149.8701" x2="683.2197" y2="55.5137">
			<stop  offset="0.4355" style="stop-color:#000000"/>
			<stop  offset="1" style="stop-color:#000000;stop-opacity:0"/>
		</linearGradient>
		<path fill="url(#SVGID_15_)" d="M647.947,149.87c0-2.856,0-4.998,0-6.425c28.555,0,49.971,0,64.248,0c0-27.296,0-47.745,0-61.351
			c-12.85,0-22.508,0-28.975,0c0-2.94,0-5.124,0-6.551c12.85,0,22.508,0,28.975,0c0-6.047,0-10.582,0-13.605
			c-28.555,0-50.014,0-64.375,0c0-2.856,0-4.998,0-6.425c35.443,0,59.043,0,70.799,0c0,47.198,0,78.65,0,94.356
			C687.211,149.87,663.652,149.87,647.947,149.87z"/>
		<linearGradient id="SVGID_16_" gradientUnits="userSpaceOnUse" x1="750.6641" y1="149.8701" x2="750.6641" y2="55.5137">
			<stop  offset="0.4355" style="stop-color:#000000"/>
			<stop  offset="1" style="stop-color:#000000;stop-opacity:0"/>
		</linearGradient>
		<path fill="url(#SVGID_16_)" d="M733.469,55.514c0,14.613,0,43.925,0,87.932c6.803,0,20.408,0,40.816,0c0,1.429,0,3.57,0,6.425
			c-10.5,0-26.246,0-47.242,0c0-20.995,0-52.447,0-94.356C728.471,55.514,730.611,55.514,733.469,55.514z"/>
		<linearGradient id="SVGID_17_" gradientUnits="userSpaceOnUse" x1="818.1104" y1="149.8701" x2="818.1104" y2="55.5137">
			<stop  offset="0.4355" style="stop-color:#000000"/>
			<stop  offset="1" style="stop-color:#000000;stop-opacity:0"/>
		</linearGradient>
		<path fill="url(#SVGID_17_)" d="M818.109,115.856c4.787-10.078,14.361-30.191,28.723-60.343c1.092,0,3.316,0,6.678,0
			c-7.141,15.034-17.848,37.626-32.125,67.775c0,5.964,0,14.824,0,26.581c-1.428,0-3.611,0-6.551,0c0-5.878,0-14.739,0-26.581
			c-7.139-15.032-17.848-37.624-32.123-67.775c1.512,0,3.736,0,6.676,0C795.77,68.952,805.344,89.066,818.109,115.856z"/>
	</g>
</g>
<g id="Layer_3" display="none">
	<polygon display="inline" fill="none" stroke="#FF1010" stroke-width="3" stroke-miterlimit="10" points="414.733,38.082 
		484.379,37.792 805.095,593.39 769.624,652.884 129.22,652.833 93.778,593.89 	"/>
	<polyline display="inline" fill="none" stroke="#FF1010" stroke-width="3" stroke-miterlimit="10" points="484.379,37.792 
		197.904,533.89 631.329,533.39 	"/>
	<polyline display="inline" fill="none" stroke="#FF1010" stroke-width="3" stroke-miterlimit="10" points="93.778,593.89 
		665.964,593.39 449.437,218.865 	"/>
	<polyline display="inline" fill="none" stroke="#FF1010" stroke-width="3" stroke-miterlimit="10" points="769.624,652.884 
		484.27,158.544 267.523,533.89 	"/>
</g>
</svg>
