<?xml version="1.0" encoding="utf-8"?>
<!-- Generator: Adobe Illustrator 16.0.0, SVG Export Plug-In . SVG Version: 6.00 Build 0)  -->
<!DOCTYPE svg PUBLIC "-//W3C//DTD SVG 1.1//EN" "http://www.w3.org/Graphics/SVG/1.1/DTD/svg11.dtd">
<svg version="1.1" id="Layer_1" xmlns="http://www.w3.org/2000/svg" xmlns:xlink="http://www.w3.org/1999/xlink" x="0px" y="0px"
	 width="1303.941px" height="1305.129px" viewBox="0 0 1303.941 1305.129" enable-background="new 0 0 1303.941 1305.129"
	 xml:space="preserve">
<g>
	<path fill="#CCCEEA" d="M867.915,849.858c-19.181-10.956-40.521-16.747-61.713-16.747c-1.929,0-3.878,0.049-5.795,0.146
		c-6.629,0.335-12.892,0.926-18.949,1.497c-8.72,0.823-16.955,1.6-25.738,1.601c-3.767,0-7.337-0.143-10.916-0.434
		c-25.705-2.095-45.507-3.874-64.204-5.77c-49.538-5.024-93.868-10.64-135.521-17.166l-0.554-0.086l-0.556,0.068
		c-3.161,0.392-7.639,0.693-12.825,1.042c-30.215,2.036-80.787,5.443-81.54,36.509c-0.635,26.198,70.731,56.5,81.522,60.167
		c33.041,11.227,72.231,16.769,119.811,16.94c16.331,0.063,32.454,1.849,48.046,3.575c15.877,1.759,32.294,3.576,48.932,3.576
		c11.378,0,21.847-0.835,32.005-2.554c36.954-6.253,78.373-15.777,105.392-39.012c4.262-3.666,6.241-8.451,5.725-13.839
		C889.795,866.463,874.638,853.699,867.915,849.858z"/>
	<path fill="#CCCEEA" d="M1082.494,180.964c1.345,0.03,2.584,0.14,3.726,0.319C1088.156,181.259,1088.918,181.109,1082.494,180.964z
		"/>
	<path fill="#CCCEEA" d="M779.149,962.604c-33.823-5.16-68.465-8.259-101.965-11.256c-34.736-3.107-70.656-6.32-105.674-11.834
		c-2.841-0.447-7.6-0.715-12.728-0.715c-12.988,0-44.1,1.556-52.449,15.959c-2.161,3.728-3.695,9.988,1.264,18.648
		c11.089,19.363,55.073,53.651,78.401,57.638c19.55,3.337,39.869,4.752,59.521,6.121c10.472,0.729,21.3,1.483,31.779,2.518
		c5.898,0.582,11.832,1.223,17.571,1.842c20.36,2.195,39.592,4.271,59.8,4.271c3.354,0,6.677-0.061,9.934-0.179
		c0.564,0.157,1.236,0.25,2.035,0.252l0.534,2.8l4.15-1.102c2.409-0.64,5.556-1.273,9.198-2.007
		c19.336-3.893,51.697-10.407,49.08-35.325C827.087,986.338,806.341,966.751,779.149,962.604z"/>
	<path fill="#CCCEEA" d="M720.045,1084.668c-4.038-1.833-7.853-3.563-10.3-5.606c-1.436-1.199-2.772-2.332-4.033-3.401
		c-12.143-10.29-18.237-15.455-38.482-16.453c-7.063-0.349-14.176-1.201-21.054-2.026c-9.112-1.093-18.535-2.224-28.088-2.224
		c-3.517,0-6.808,0.147-10.061,0.451c-12.362,1.152-41.311,3.852-39.518,28.504c1.057,14.51,14.066,21.667,24.52,27.417
		c3.211,1.767,6.243,3.435,8.806,5.191c10.944,7.503,23.408,8.538,35.247,8.538c2.933,0,5.892-0.07,8.754-0.137
		c2.772-0.065,5.639-0.133,8.39-0.133c1.964,0,3.705,0.033,5.325,0.103c12.929,0.554,25.965,2.619,38.572,4.616
		c3.87,0.613,7.743,1.227,11.626,1.802l1.133,0.168l1.05-0.458c1.62-0.705,3.516-1.398,5.523-2.133
		c9.612-3.516,22.777-8.33,23.146-21.967C740.944,1094.152,729.357,1088.893,720.045,1084.668z"/>
	<path fill="#CCCEEA" d="M838.123,227.509C839.246,229.31,836.623,229.079,838.123,227.509
		c-52.468,54.91-83.876,155.573-57.509,228.686c8.37,23.211,16.739,10.075,31.654-2.408c16.266-13.613,32.431-27.338,48.432-41.261
		c16.681-14.513,33.295-29.102,49.906-43.694c16.462-14.46,41.066-29.411,51.352-48.893c-26.28-10.712-50.078-14.222-74.315-31.168
		C862.734,271.355,853.488,252.154,838.123,227.509z"/>
	<path fill="#CCCEEA" d="M725.21,431.894c0.046,1.605,0.086,3.218,0.124,4.837C725.305,435.388,725.265,433.797,725.21,431.894z"/>
	<path fill="#CCCEEA" d="M1105.516,183.965c1.664,10.208-0.331,22.927-3.59,28.904c-13.519,24.792-23.197,52.369-46.577,69.992
		c-18.474,13.926-46.09,17.526-62.779,32.331c-21.394,18.978-17.704,52.281-14.982,77.629
		c5.429,50.551,52.707,89.517,42.001,141.508c-6.179,30.005-25.977,52.014-41.063,77.589c-7.446,12.624-17.969,23.58-27.326,34.787
		c-4.901,5.852-9.774,11.728-14.617,17.628c-6.508,7.953-7.712,0.67-14.241-0.738c-52.492-11.318-85.192-71.614-140.089-73.88
		c-28.227-1.166-49.741,22.675-67.314,41.601c-14.511,15.626-32.901,52.181-52.908,59.331c0.186-15.244,15.927-28.727,20.928-43.125
		c-15.794,4.898-29.425,16.217-44.111,23.767c-18.298,9.405-28.139,3.089-46.215,5.203c-29.103,3.402-65.378-43.756-77.445-65.814
		c-17.127-31.309-39.695-59.259-71.099-77.165c-14.277-8.141-32.109-18.736-49.182-14.292
		c-16.295,4.241-25.406,22.327-41.435,25.581c1.092-25.211,32.332-44.61,49.604-59.165c11.035-9.298,20.995-18.628,36.375-17.511
		c12.576,0.914,27.838,14.221,38.799,12.939c18.199-2.129,51.345-45.536,61.041-60.723c18.545-29.046,21.239-58.696,5.911-89.506
		c-11.82-23.756-34.359-38.942-46.625-62.5c-2.764-5.308-6.245-26.696-15.021-18.14c-12.12,11.817-23.614,24.227-35.22,36.542
		c-23.363,24.791-47.87,49.079-67.666,76.897c-19.013,26.719-21.059,60.765-31.784,91.624c-4.036,11.613-7.905,23.811-13.832,34.626
		c-4.45,8.121,0.058,17.553-3.644,22.665c-19.586,27.053-36.226,57.388-58.861,82.016c-23.351,25.409,52.875,24.217,65.063,19.268
		c9.357-3.799,53.655-36.837,58.067-22.256c4.311,14.244-48.843,49.297-59.147,56.808c-24.621,17.947-55.001,28.262-84.888,17.634
		c-27.721-9.858-57.802-40.201-87.768-39.444c-34.002,0.859-53.077,34.433-81.655,43.875c3.444-33.09,51.102-69.921,79.66-81.041
		c14.327-5.579,34.546-15.525,49.668-7.943c18.576,9.314,32.556,22.815,46.523,2.724c21.28-30.612,37.596-66.828,49.195-102.258
		c11.467-35.027,23.483-85.262,17.21-122.153c-5.518-32.446-40.896-54.687-67.268-69.626c-12.824-7.265-33.596-16.705-48.692-15.702
		c-15.557,1.034-26.059,16.192-36.347,25.892c-14.08,13.274-19.958,14.675-26.333,34.348c-6.387,19.709-15.329,40.098-18.729,60.552
		c-7.303,43.925,18.866,70.372,28.583,109.513c-36.573-17.159-41.369-78.785-35.144-113.063
		c4.235-23.321,10.773-46.202,19.325-68.304c4.225-10.919,8.236-24.378,15.515-33.718c5.598-7.184,15.032-10.586,21.371-17.662
		c15.256-17.028,23.844-27.708,45.415-37.114c7.107-3.099,16.095,7.25,22.289,9.922c10.792,4.655,22.176,7.12,33.293,10.787
		c23.684,7.812,41.323,26.037,61.184,40.182c20.934,14.909,23.354,39.528,32.396,61.604c32.523-30.827,61.907-65.222,92.276-98.167
		c23.103-25.063,55.317-71.697,88.722-80.929c-7.082,19.07-20.737,29.924-7.784,50.504c12.978,20.62,34.139,36.74,42.353,60.185
		c8.767,25.012,15.592,38.771,6.47,65.854c-9.483,28.155-26.394,52.046-45.325,74.613c-16.275,19.4-33.014,35.989-52.207,52.555
		c-11.947,10.312,31.555,43.856,39.312,55.151c27.021,39.348,58.484,107.76,117.277,97.186c58.248-10.477,83.07-69.02,134.16-88.997
		c63.988-25.021,92.055,33.739,145.435,54.127c28.277,10.8,41.979,5.177,46.763-26.729c4.153-27.704-7.081-46.552-23.564-66.122
		c-13.219-15.695-17.66-43.027-20.96-62.504c-5.189-30.63,0.919-52.721,3.763-82.356c-25.878,11.363-51.781,40.263-72.616,59.344
		c-22.87,20.945-45.168,42.493-68.124,63.358c-10.412,9.464-21.706,18.538-31.097,29.046c-11.855,13.269-16.823,15.531-26.999-1.819
		c-13.213-22.529-13.251-49.51-13.848-74.955c0.496,22.823-2.425-30.627-0.124-4.837c-4.448-49.856,22.576-113.509,49.476-154.321
		c14.327-21.738,32.286-41.006,51.409-58.58c12.943-11.895,42.42-45.984,60.515-46.109c-0.787,12.014-8.814,14.297,0.149,26.521
		c6.621,9.03,13.903,17.599,22.014,25.329c18.153,17.3,40.419,29.569,65.152,34.26c9.92,1.881,26.894,6.466,36.662,2.43
		c10.476-4.328,14.199-24.423,19.232-33.541c12.518-22.673,31.941-48.259,56.987-57.629c1.1-0.411,2.143-0.713,3.133-0.916
		C974.076,64.122,820.214,0,651.376,0C290.976,0-1.188,292.163-1.188,652.564c0,360.401,292.163,652.565,652.564,652.565
		c360.401,0,652.564-292.164,652.564-652.565C1303.941,468.686,1227.881,302.578,1105.516,183.965z M977.242,909.195
		c-6.535,16.111-21.565,21.3-37.479,26.792c-6.063,2.094-12.334,4.258-18.243,7.075c-10.831,5.163-23.467,7.69-35.686,10.134
		c-14.606,2.921-29.709,5.941-42.329,13.494l-4.296,2.572l3.457,3.622c9.846,10.317,22.785,14.377,35.298,18.303
		c17.761,5.572,33.101,10.385,39.587,31.153c3.136,10.038,1.786,19.124-4.01,27.006c-11.364,15.456-38.288,23.796-57.851,23.796
		c-1.237,0-2.455-0.033-3.619-0.099l-0.113-0.007h-0.113c-4.892,0-9.783,0.025-14.676,0.051c-4.878,0.025-9.756,0.051-14.633,0.051
		c-8.476,0-19.663-0.066-31.035-0.588c-0.376-0.017-9.347-0.423-19.381-0.423c-26.135,0-28.908,2.501-29.974,6.035
		c-0.337,1.12-0.718,3.993,3.028,6.478c8.245,5.467,20.347,7.933,33.158,10.544c22.094,4.503,44.939,9.158,48.867,29.188
		c1.652,8.426,0.438,14.974-3.714,20.02c-7.141,8.678-23.124,13.078-47.505,13.079c-9.883,0-19.2-0.714-26.003-1.234l-0.147-0.012
		c-3.585-0.274-7.584-0.644-11.818-1.034c-12.044-1.111-27.034-2.495-41.8-2.495c-35.291,0-57.971,8.118-69.333,24.819
		c-6.517,9.579,3.035,21.325,10.01,29.902c2.255,2.772,4.396,5.406,5.473,7.294c-0.775,0.184-2.11,0.377-4.301,0.377
		c-7.34,0-20.049-2.144-35.787-6.037l-0.65-0.16c-15.826-3.858-49.521-19.606-59.483-40.188c-3.479-7.188-3.631-14.038-0.464-20.938
		c1.327-2.89,6.822-6.389,11.67-9.476c7.507-4.779,14.598-9.293,14.238-15.74c-0.448-8.031-14.244-14.787-41.254-25.197
		c-4.542-1.751-8.465-3.263-10.167-4.125c-16.808-8.521-27.118-18.936-33.43-33.771c-4.506-10.59,3.142-17.487,15.324-26.802
		c4.749-3.631,9.234-7.061,12.303-10.94l2.489-3.147l-3.155-2.479c-8.287-6.513-17.287-12.233-25.99-17.766
		c-2.777-1.765-5.551-3.528-8.301-5.314c-4.736-3.078-9.623-7.667-14.349-12.104c-6.132-5.758-12.472-11.711-19.197-15.164
		c-10.876-5.584-21.783-20.33-20.685-33.382c0.71-8.435,15.515-17.927,26.324-24.857c4.561-2.924,8.499-5.449,11.34-7.775
		l3.488-2.854l-3.25-3.124c-6.082-5.847-17.967-12.916-31.729-21.103c-26.955-16.033-63.87-37.992-62.558-56.299
		c0.6-8.365,9.553-16.197,26.611-23.279c18.652-7.743,39.53-11.508,63.828-11.508c27.146,0,55.331,4.672,82.588,9.19
		c22.332,3.702,45.422,7.529,67.291,8.606c17.192,0.847,35.169,2.371,52.553,3.845c27.809,2.358,56.563,4.796,84.841,4.796
		c31.327,0,58.186-3.067,82.108-9.378c17.234-4.548,58.07-17.446,65.006-38.947c2.543-7.881,0.504-15.919-6.059-23.892
		c-10.571-12.844-21.595-21.039-33.697-25.053c-2.154-0.714-5.726-1.363-10.248-2.183c-6.993-1.269-15.696-2.848-22.61-5.28
		c-5.877-2.067-9.459-4.497-9.734-6.572c0.478-0.216,1.732-0.611,4.531-0.611c28.195,0,125.919,38.901,137.373,48.782l0.384,0.331
		c10.749,9.271,25.472,21.968,26.259,34.589c0.301,4.819-1.489,9.306-5.473,13.717c-12.098,13.396-30.125,19.131-47.559,24.678
		c-12.024,3.825-24.459,7.78-34.992,14.233l-3.652,2.238l2.482,3.491c7.206,10.132,20.957,14.578,34.254,18.877
		c9.425,3.048,19.17,6.198,25.812,11.214l0.242,0.183C956.738,875.82,982.797,895.496,977.242,909.195z"/>
	<path fill="#CCCEEA" d="M1082.494,180.964c-25.425,10.459-57.907,47.068-58.587,75.159c18.433-0.849,47.717-13.109,59.707-27.9
		c8.865-10.936,25.487-43.333,2.605-46.94C1084.498,181.306,1081.848,181.23,1082.494,180.964z"/>
</g>
</svg>
