<?xml version="1.0" encoding="utf-8"?>
<!-- Generator: Adobe Illustrator 16.0.0, SVG Export Plug-In . SVG Version: 6.00 Build 0)  -->
<!DOCTYPE svg PUBLIC "-//W3C//DTD SVG 1.1//EN" "http://www.w3.org/Graphics/SVG/1.1/DTD/svg11.dtd">
<svg version="1.1" id="Layer_1" xmlns="http://www.w3.org/2000/svg" xmlns:xlink="http://www.w3.org/1999/xlink" x="0px" y="0px"
	 width="1116.112px" height="1173.117px" viewBox="0 0 1116.112 1173.117" enable-background="new 0 0 1116.112 1173.117"
	 xml:space="preserve">
<g>
	<path fill-rule="evenodd" clip-rule="evenodd" d="M625.715,596.636c-1.028,0-2.046-0.317-2.905-0.93
		c-1.333-0.951-2.115-2.494-2.096-4.131c0.129-10.562,6.252-19.756,12.174-28.648c0.995-1.493,1.975-2.964,2.91-4.417
		c-4.957,2.593-9.847,5.642-14.892,8.787c-5.198,3.241-10.574,6.593-16.09,9.428c-10.121,5.202-17.829,5.904-24.034,5.904
		c-2.668,0-5.322-0.153-7.89-0.302c-2.66-0.153-5.41-0.313-8.285-0.313c-2.701,0-5.224,0.142-7.711,0.433
		c-1.183,0.138-2.4,0.208-3.62,0.208c-31.18,0.005-66.549-46.208-78.792-68.589c-19.137-34.982-41.769-59.587-69.188-75.221
		l-1.219-0.696c-11.483-6.557-24.499-13.99-37.083-13.99c-2.474,0-4.877,0.299-7.143,0.889c-6.869,1.788-12.498,6.652-18.457,11.801
		c-6.783,5.862-13.797,11.923-23.243,13.841c-0.331,0.067-0.664,0.1-0.995,0.1c-1.18,0-2.334-0.418-3.247-1.198
		c-1.17-0.999-1.815-2.481-1.748-4.018c1.004-23.191,23.528-40.812,41.626-54.969c3.527-2.76,6.859-5.366,9.751-7.803l1.932-1.634
		c9.944-8.429,20.226-17.145,35.176-17.145c0.938,0,1.897,0.035,2.851,0.104c6.873,0.499,13.861,3.903,20.619,7.194
		c5.874,2.861,11.947,5.819,16.283,5.819c0.333,0,0.653-0.018,0.954-0.053c14.256-1.667,44.951-38.937,57.408-58.447
		c18.052-28.275,19.9-55.944,5.648-84.588c-5.714-11.484-14.038-20.832-22.851-30.729c-8.563-9.617-17.419-19.562-23.733-31.689
		c-0.83-1.593-1.559-3.84-2.404-6.441c-0.879-2.707-2.821-8.685-4.437-10.664c-0.077,0.068-0.162,0.146-0.255,0.237
		c-10.282,10.025-20.314,20.697-30.016,31.019l-5.055,5.373c-3.916,4.155-7.864,8.297-11.817,12.443
		c-19.241,20.183-39.138,41.053-55.414,63.924c-12.085,16.982-16.986,37.005-22.175,58.203c-2.599,10.617-5.287,21.596-8.959,32.163
		c-0.509,1.464-1.015,2.938-1.523,4.417c-3.572,10.398-7.265,21.15-12.647,30.971c-1.683,3.071-1.581,6.681-1.473,10.504
		c0.123,4.368,0.25,8.884-2.505,12.69c-6.667,9.208-13.133,19.021-19.388,28.51c-12.15,18.435-24.713,37.498-39.842,53.958
		c-2.323,2.529-3.464,4.789-2.977,5.9c1.668,3.798,15.322,7.836,37.34,7.836c12.354,0,22.171-1.28,25.137-2.484
		c1.969-0.799,6.726-3.723,11.761-6.818c17.356-10.668,32.528-19.499,42.416-19.499c5.316,0,9.164,2.641,10.557,7.245
		c4.04,13.35-19.473,33.154-56.021,58.782c-2.106,1.477-3.811,2.672-4.967,3.515c-20.541,14.973-42.289,22.887-62.895,22.887
		c-9.107,0-18.061-1.542-26.613-4.583c-11.036-3.924-22.431-10.95-33.451-17.745c-17.083-10.533-34.748-21.424-51.537-21.424
		c-0.327,0-0.651,0.004-0.979,0.012c-18.208,0.46-31.818,11.218-46.227,22.608C71,563.439,60.186,571.987,47.472,576.188
		c-0.513,0.169-1.042,0.252-1.568,0.252c-1.125,0-2.235-0.38-3.136-1.105c-1.321-1.063-2.014-2.725-1.838-4.413
		c3.823-36.735,55.156-74.412,82.819-85.183c1.606-0.626,3.289-1.307,5.03-2.013c9.916-4.017,22.256-9.015,33.93-9.015
		c5.463,0,10.43,1.102,14.764,3.274c3.224,1.617,6.259,3.324,9.195,4.976c7.29,4.101,13.584,7.643,18.889,7.643
		c2.721,0,6.934-0.858,12.093-8.279c19.162-27.564,35.95-62.476,48.549-100.96c9.192-28.078,23.628-80.973,17.033-119.759
		c-4.876-28.672-35.495-49.511-64.803-66.114c-6.264-3.549-27.945-15.126-43.946-15.126c-0.668,0-1.324,0.021-1.95,0.063
		c-10.31,0.685-18.506,9.296-26.433,17.625c-2.332,2.45-4.535,4.765-6.816,6.916c-3.013,2.841-5.65,5.143-7.977,7.173
		c-8.523,7.439-12.414,10.834-17.03,25.078c-1.898,5.856-4.048,11.854-6.127,17.655c-4.964,13.848-10.097,28.167-12.426,42.176
		c-4.509,27.118,4.56,47.484,14.161,69.046c5.333,11.976,10.847,24.359,14.342,38.442c0.465,1.872-0.188,3.844-1.679,5.068
		c-0.912,0.75-2.038,1.137-3.175,1.137c-0.72,0-1.445-0.156-2.123-0.474c-17.686-8.298-30.263-26.806-36.372-53.524
		c-4.664-20.399-5.25-44.683-1.568-64.958c4.224-23.264,10.813-46.551,19.581-69.215c0.807-2.085,1.605-4.263,2.421-6.488
		c3.497-9.538,7.461-20.348,13.813-28.5c3.419-4.389,7.84-7.407,12.115-10.326c3.533-2.412,6.871-4.691,9.476-7.599l2.951-3.303
		c13.879-15.559,23.048-25.838,44.189-35.058c1.507-0.657,3.126-0.99,4.813-0.99c5.772,0,11.088,3.841,15.778,7.23
		c2.067,1.494,4.205,3.039,5.676,3.673c6.711,2.896,13.615,4.893,20.924,7.008c3.914,1.133,7.961,2.304,11.955,3.621
		c17.956,5.922,32.481,17.454,46.527,28.604c5.204,4.131,10.585,8.403,15.991,12.253c16.926,12.055,22.654,29.771,28.193,46.902
		c1.06,3.278,2.141,6.622,3.304,9.927c21.762-21.114,42.471-44.038,62.547-66.262c7.859-8.7,15.985-17.696,24.052-26.446
		c4.941-5.361,10.367-11.795,16.11-18.608c21.079-24.999,47.312-56.112,74.956-63.751c0.44-0.122,0.888-0.181,1.332-0.181
		c1.381,0,2.724,0.573,3.685,1.62c1.269,1.383,1.656,3.361,1.003,5.121c-1.909,5.141-4.288,9.754-6.388,13.823
		c-6.012,11.656-9.984,19.357-1.853,32.277c4.805,7.634,10.728,14.57,16.999,21.913c10.069,11.791,20.481,23.983,25.841,39.282
		c0.799,2.279,1.582,4.465,2.338,6.575c7.543,21.062,12.993,36.279,4.151,62.528c-10.534,31.276-30.241,57.168-46.232,76.23
		c-15.724,18.742-32.493,35.624-52.771,53.126c-0.223,0.192-0.315,0.314-0.329,0.746c-0.211,6.743,16.365,22.965,26.269,32.658
		c6.533,6.394,11.693,11.444,14.226,15.132c4.181,6.089,8.407,12.769,12.88,19.84c21.496,33.981,48.25,76.272,88.27,76.272
		c3.625,0,7.366-0.342,11.121-1.018c30.977-5.572,51.865-25.199,73.98-45.979c17.553-16.494,35.704-33.549,59.243-42.753
		c11.084-4.333,21.461-6.44,31.726-6.44c27.798,0,48.44,15.447,70.295,31.801c14.482,10.838,29.457,22.044,47.02,28.752
		c8.264,3.156,14.797,4.69,19.974,4.69c8.278,0,16.438-3.33,20.061-27.49c3.763-25.104-5.798-42.396-22.444-62.159
		c-13.87-16.468-18.508-43.871-21.895-63.88l-0.171-1.01c-3.99-23.549-1.488-42.393,1.16-62.344
		c0.527-3.976,1.065-8.031,1.565-12.207c-16.801,9.667-33.671,25.989-48.798,40.625c-5.07,4.905-9.858,9.538-14.475,13.766
		c-10.658,9.761-21.38,19.83-31.749,29.567c-11.86,11.139-24.124,22.656-36.389,33.804c-2.873,2.611-5.849,5.225-8.728,7.754
		c-7.56,6.641-15.377,13.508-22.004,20.923c-5.984,6.697-11.465,12.242-17.944,12.242c-7.364,0-12.568-7.144-17.096-14.863
		c-12.694-21.644-13.811-46.431-14.38-70.614c-0.279-1.035-0.362-2.054-0.419-2.75c-0.107-1.324-0.228-3.13-0.34-5.055
		c-0.207-3.554-0.416-8.068-0.416-10.143c0-0.447,0.012-0.801,0.027-1.042c0.043-0.663,0.183-1.262,0.396-1.794
		c-0.807-50.917,26.184-110.69,50.772-147.996c12.978-19.691,30.053-39.156,52.201-59.51c2.488-2.287,5.641-5.454,9.291-9.121
		c16.043-16.118,38.014-38.192,54.572-38.307c0.011,0,0.022,0,0.034,0c1.376,0,2.692,0.567,3.638,1.569
		c0.953,1.011,1.442,2.372,1.352,3.758c-0.32,4.891-1.65,8.396-2.719,11.212c-1.714,4.518-2.354,6.208,1.911,12.025
		c6.947,9.475,13.957,17.543,21.431,24.667c18.073,17.223,39.731,28.624,62.635,32.967c1.494,0.283,3.146,0.626,4.906,0.993
		c6.344,1.32,14.237,2.962,20.898,2.962c3.338,0,6.035-0.415,8.017-1.233c5.323-2.199,9.063-12.198,12.067-20.232
		c1.549-4.14,3.011-8.049,4.697-11.104c11.933-21.615,31.962-49.551,59.612-59.896c2.75-1.029,5.39-1.55,7.847-1.55
		c5.874,0,10.671,2.85,13.872,8.241c6.951,11.708,4.552,33.813-0.458,43c-2.914,5.345-5.715,10.956-8.422,16.38
		c-9.996,20.027-20.332,40.736-39.535,55.211c-9.279,6.995-20.525,11.455-31.4,15.767c-11.795,4.677-22.935,9.095-31.07,16.312
		c-19.362,17.176-16.039,48.123-13.369,72.989l0.04,0.366c2.208,20.567,11.973,39.761,21.415,58.322
		c13.285,26.113,27.021,53.115,20.512,84.728c-4.693,22.789-16.948,41.209-28.8,59.023c-4.334,6.515-8.816,13.252-12.854,20.098
		c-5.932,10.055-13.662,19.004-21.138,27.658c-2.209,2.557-4.492,5.201-6.657,7.793c-4.928,5.883-9.835,11.801-14.59,17.596
		c-1.925,2.352-4.968,5.485-9.106,5.486c-2.929,0-5.027-1.503-6.714-2.711c-1.155-0.827-2.152-1.541-3.341-1.797
		c-25.314-5.458-46.051-21.664-66.104-37.334c-23.218-18.145-45.147-35.282-73.136-36.438c-0.598-0.024-1.193-0.037-1.784-0.037
		c-24.504,0-43.672,20.658-60.584,38.884l-1.076,1.16c-4.513,4.859-9.593,12.093-14.971,19.751
		c-11.698,16.658-24.958,35.538-39.919,40.885C626.85,596.54,626.281,596.636,625.715,596.636z M801.013,136.739
		c-46.529,52.296-78.15,146.268-52.011,218.75c2.696,7.477,4.911,9.471,5.795,9.471c2.273,0,7.114-4.378,11.385-8.241
		c2.067-1.869,4.204-3.802,6.563-5.776c17.819-14.913,33.638-28.389,48.358-41.198c16.04-13.956,31.433-27.466,49.889-43.678
		c4.585-4.027,9.646-7.982,15.006-12.17c12.163-9.504,24.688-19.291,32.305-30.474c-6.495-2.451-12.892-4.554-19.123-6.602
		c-17.353-5.705-33.742-11.092-50.717-22.961c-22.187-15.513-32.578-32.632-44.61-52.454
		C802.921,139.874,801.977,138.317,801.013,136.739z M1046.653,87.193c-21.961,9.835-49.062,40-53.457,64.304
		c16.859-2.686,40.297-13.191,50.22-25.432c7.264-8.96,15.5-26.393,12.415-34.43c-0.574-1.496-1.855-3.555-6.321-4.358l-0.187,0.001
		C1048.487,87.278,1047.567,87.278,1046.653,87.193z"/>
	<path fill="#666666" d="M1056.587,70.012c16.695,0,14.935,33.01,9.024,43.848c-13.519,24.792-23.197,52.369-46.577,69.992
		c-18.474,13.926-46.09,17.526-62.779,32.331c-21.394,18.978-17.704,52.281-14.982,77.629
		c5.429,50.551,52.707,89.517,42.001,141.508c-6.179,30.005-25.977,52.014-41.063,77.589c-7.446,12.624-17.969,23.58-27.326,34.787
		c-4.901,5.852-9.774,11.728-14.617,17.628c-2.226,2.72-3.832,3.658-5.242,3.658c-2.713,0-4.703-3.47-8.999-4.396
		c-52.492-11.318-85.192-71.614-140.089-73.88c-0.667-0.027-1.331-0.041-1.99-0.041c-27.252-0.001-48.166,23.163-65.324,41.642
		c-14.511,15.626-32.901,52.181-52.908,59.331c0.186-15.244,15.927-28.727,20.928-43.125c-15.794,4.898-29.425,16.217-44.111,23.767
		c-8.521,4.38-15.21,5.351-21.749,5.351c-5.201,0-10.311-0.614-16.174-0.614c-2.592,0-5.331,0.12-8.292,0.466
		c-1.004,0.117-2.021,0.175-3.04,0.175c-28.54,0-62.754-44.692-74.405-65.989c-17.127-31.309-39.695-59.259-71.099-77.165
		c-11.946-6.812-26.382-15.341-40.779-15.342c-2.809,0-5.615,0.325-8.403,1.05c-16.295,4.241-25.406,22.327-41.435,25.581
		c1.092-25.211,32.332-44.61,49.604-59.165c10.428-8.787,19.896-17.603,33.886-17.603c0.814,0,1.643,0.03,2.489,0.091
		c11.999,0.872,26.444,13.026,37.264,13.026c0.521,0,1.032-0.028,1.535-0.087c18.199-2.129,51.345-45.536,61.041-60.723
		c18.545-29.046,21.239-58.696,5.911-89.506c-11.82-23.756-34.359-38.942-46.625-62.5c-2.312-4.44-5.127-20.136-11.124-20.136
		c-1.171,0-2.463,0.599-3.897,1.997c-12.12,11.817-23.614,24.227-35.22,36.542c-23.363,24.791-47.87,49.079-67.666,76.897
		c-19.013,26.719-21.059,60.765-31.784,91.624c-4.036,11.613-7.905,23.811-13.832,34.626c-4.45,8.121,0.058,17.553-3.644,22.665
		c-19.586,27.053-36.226,57.388-58.861,82.016c-15.663,17.044,13.481,22.119,38.045,22.119c12.056,0,23.006-1.222,27.018-2.851
		c7.683-3.12,38.92-25.95,52.296-25.95c2.916,0,4.982,1.084,5.771,3.693c4.311,14.244-48.843,49.297-59.147,56.808
		c-17.767,12.951-38.535,21.928-59.95,21.928c-8.262,0-16.618-1.335-24.938-4.294c-27.379-9.736-57.064-39.456-86.663-39.458
		c-0.369,0-0.735,0.004-1.105,0.014c-34.002,0.859-53.077,34.433-81.655,43.875c3.444-33.09,51.102-69.921,79.66-81.041
		c10.633-4.14,24.514-10.687,37.146-10.687c4.388,0,8.624,0.79,12.523,2.744c11.509,5.771,21.254,13.149,30.325,13.149
		c5.57,0,10.885-2.781,16.198-10.425c21.28-30.612,37.596-66.828,49.195-102.258c11.467-35.027,23.483-85.262,17.21-122.153
		c-5.518-32.446-40.896-54.687-67.268-69.626c-12.189-6.906-31.559-15.776-46.411-15.776c-0.773,0-1.535,0.024-2.282,0.074
		c-15.557,1.034-26.059,16.192-36.347,25.892c-14.08,13.274-19.958,14.675-26.333,34.348c-6.387,19.709-15.329,40.098-18.729,60.552
		c-7.303,43.925,18.866,70.372,28.583,109.513C82.8,388.585,78.004,326.959,84.229,292.682
		c4.235-23.321,10.773-46.202,19.325-68.304c4.225-10.919,8.236-24.378,15.515-33.718c5.598-7.184,15.032-10.586,21.371-17.662
		c15.256-17.028,23.844-27.708,45.415-37.114c0.911-0.397,1.852-0.573,2.814-0.573c6.55,0,14.074,8.166,19.474,10.495
		c10.792,4.655,22.176,7.12,33.293,10.787c23.684,7.812,41.323,26.037,61.184,40.182c20.934,14.909,23.354,39.528,32.396,61.604
		c32.523-30.827,61.907-65.222,92.276-98.167c23.103-25.063,55.317-71.697,88.722-80.929c-7.082,19.07-20.737,29.924-7.784,50.504
		c12.978,20.62,34.139,36.74,42.353,60.185c8.767,25.012,15.592,38.771,6.47,65.854c-9.483,28.155-26.394,52.046-45.325,74.613
		c-16.275,19.4-33.014,35.989-52.207,52.555c-11.947,10.312,31.555,43.856,39.312,55.151
		c25.119,36.579,54.087,98.282,105.271,98.282c3.875,0,7.868-0.353,12.006-1.097c58.248-10.477,83.07-69.02,134.16-88.997
		c10.908-4.265,20.78-6.097,29.904-6.097c44.396,0,71.25,43.312,115.53,60.224c8.526,3.256,15.727,5.02,21.758,5.02
		c13.972,0,21.664-9.463,25.005-31.749c4.153-27.704-7.081-46.552-23.564-66.122c-13.219-15.695-17.66-43.027-20.96-62.504
		c-5.189-30.63,0.919-52.721,3.763-82.356c-25.878,11.363-51.781,40.263-72.616,59.344c-22.87,20.945-45.168,42.493-68.124,63.358
		c-10.412,9.464-21.706,18.538-31.097,29.046c-5.971,6.682-10.194,10.573-14.216,10.573c-3.965,0-7.732-3.78-12.783-12.393
		c-13.193-22.496-13.251-49.428-13.845-74.84c-0.029-1.363-0.071-3.002-0.127-4.952c-4.448-49.856,22.576-113.509,49.476-154.321
		c14.327-21.738,32.286-41.006,51.409-58.58c12.943-11.895,42.42-45.984,60.515-46.109c-0.787,12.014-8.814,14.297,0.149,26.521
		c6.621,9.03,13.903,17.599,22.014,25.329c18.153,17.3,40.419,29.569,65.152,34.26c7.054,1.337,17.676,4.042,26.736,4.042
		c3.682,0,7.104-0.446,9.926-1.612c10.476-4.328,14.199-24.423,19.232-33.541c12.518-22.673,31.941-48.259,56.987-57.629
		C1052.751,70.4,1054.78,70.012,1056.587,70.012 M1046.179,81.955c-25.425,10.459-57.907,47.068-58.587,75.159
		c18.433-0.849,47.717-13.109,59.707-27.9c8.864-10.935,25.486-43.328,2.612-46.94C1051.844,82.25,1052.597,82.1,1046.179,81.955
		 M801.808,128.5c-52.468,54.91-83.876,155.573-57.509,228.686c3.358,9.312,6.718,12.775,10.498,12.775
		c5.643,0,12.225-7.708,21.156-15.183c16.266-13.613,32.431-27.338,48.432-41.261c16.681-14.513,33.295-29.102,49.906-43.694
		c16.462-14.46,41.066-29.411,51.352-48.893c-26.28-10.712-50.078-14.222-74.315-31.168
		C826.419,172.346,817.173,153.145,801.808,128.5 M850.295,73.875h0.005 M516.013,79.282h0.005 M1046.179,81.955
		c1.347,0.03,2.589,0.139,3.732,0.319c-0.187,0.003-0.385,0.004-0.588,0.004C1047.652,82.278,1045.603,82.192,1046.179,81.955
		 M801.808,128.5c0.542,0.87,0.211,1.266-0.107,1.266C801.359,129.765,801.033,129.312,801.808,128.5 M688.068,325.675
		c0.108,0,0.36,1.969,0.828,7.209c0.047,1.643,0.088,3.294,0.127,4.952c0.089,4.129,0.063,5.719-0.021,5.719
		C688.713,343.556,687.74,325.675,688.068,325.675 M1056.587,60.012c-3.058,0-6.287,0.628-9.599,1.867
		c-29.081,10.88-49.896,39.81-62.238,62.162c-1.863,3.376-3.388,7.453-5.002,11.77c-1.649,4.408-3.354,8.967-5.346,12.542
		c-2.196,3.943-3.674,4.708-3.948,4.82c-0.943,0.39-2.77,0.855-6.108,0.855c-6.146,0-13.761-1.584-19.879-2.857
		c-1.769-0.368-3.439-0.716-4.993-1.011c-21.954-4.164-42.742-15.116-60.116-31.674c-7.258-6.917-14.078-14.769-20.849-24.003
		c-2.184-2.977-2.269-4.096-2.271-4.143c-0.024-0.445,0.545-1.946,1.002-3.152c1.104-2.911,2.609-6.879,3.013-12.362
		c0.029-0.313,0.045-0.63,0.045-0.951c0-5.523-4.476-10-9.998-10h-0.005c-0.037,0-0.074,0-0.111,0
		c-17.204,0.147-36.464,18.103-58.04,39.779c-3.607,3.625-6.723,6.754-9.13,8.966c-22.453,20.634-39.787,40.404-52.992,60.44
		c-24.85,37.702-52.101,98.09-51.604,149.99c-0.199,0.709-0.328,1.453-0.379,2.224c-0.025,0.389-0.038,0.824-0.038,1.369
		c0,2.325,0.229,7.074,0.425,10.434c0.083,1.43,0.211,3.487,0.348,5.17c0.066,0.807,0.127,1.438,0.186,1.928
		c0.058,0.476,0.138,0.932,0.238,1.37c0.573,23.611,1.893,49.763,15.045,72.189c5.28,9.002,11.527,17.333,21.409,17.333
		c8.548,0,14.873-6.3,21.673-13.91c6.426-7.19,14.128-13.957,21.577-20.5c2.894-2.542,5.886-5.169,8.789-7.809
		c12.294-11.175,24.573-22.707,36.448-33.859c10.357-9.727,21.068-19.785,31.703-29.525c4.667-4.274,9.479-8.93,14.574-13.859
		c12.231-11.833,25.622-24.79,39.006-34.225c-0.069,0.52-0.139,1.039-0.207,1.556c-2.699,20.335-5.249,39.543-1.133,63.837
		l0.171,1.011c3.482,20.576,8.252,48.754,23,66.265c16.155,19.18,24.823,34.852,21.323,58.197
		c-3.482,23.231-10.765,23.231-15.115,23.231c-4.492,0-10.612-1.467-18.189-4.361c-16.91-6.458-31.601-17.452-45.809-28.084
		c-21.547-16.125-43.828-32.798-73.29-32.798c-10.899,0-21.872,2.219-33.546,6.784c-24.439,9.557-42.948,26.948-60.847,43.767
		c-21.561,20.258-41.924,39.393-71.442,44.702c-3.463,0.623-6.906,0.938-10.235,0.938c-16.22,0-31.508-7.523-46.736-22.998
		c-14.219-14.448-26.485-33.839-37.308-50.947c-4.5-7.113-8.75-13.832-12.984-19.998c-2.809-4.09-8.123-9.291-14.851-15.875
		c-5.708-5.586-12.178-11.918-17.193-17.756c-4.456-5.187-6.299-8.315-7.058-9.954c19.631-17.092,36.014-33.676,51.415-52.034
		c16.274-19.4,36.34-45.78,47.141-77.849c9.396-27.895,3.7-43.798-4.183-65.81c-0.753-2.1-1.531-4.275-2.326-6.543
		c-5.669-16.18-16.39-28.734-26.758-40.875c-6.149-7.201-11.958-14.003-16.568-21.329c-6.611-10.503-3.893-15.773,2.064-27.322
		c2.122-4.116,4.523-8.771,6.516-14.067c0.479-1.168,0.743-2.448,0.743-3.789c0-5.41-4.295-9.817-9.662-9.995
		c-0.113-0.004-0.228-0.006-0.342-0.006c-0.201,0-0.402,0.006-0.604,0.019c-0.796,0.047-1.566,0.188-2.301,0.411
		c-29.042,8.162-55.741,39.825-77.204,65.28c-5.707,6.769-11.098,13.162-15.964,18.441c-8.084,8.77-16.22,17.776-24.087,26.485
		c-18.262,20.216-37.048,41.012-56.636,60.449c-0.248-0.762-0.496-1.529-0.745-2.301c-5.79-17.906-11.776-36.422-30.05-49.437
		c-5.3-3.774-10.392-7.817-15.783-12.097c-14.389-11.423-29.268-23.235-48.07-29.437c-4.081-1.346-8.173-2.53-12.13-3.675
		c-7.154-2.07-13.911-4.026-20.334-6.796c-0.967-0.417-3.052-1.924-4.728-3.135c-5.042-3.644-11.316-8.178-18.707-8.178
		c-2.378,0-4.67,0.473-6.811,1.407c-22.145,9.657-32.118,20.837-45.921,36.312c-0.956,1.072-1.936,2.17-2.944,3.296
		c-2.202,2.457-5.296,4.57-8.572,6.807c-4.378,2.989-9.34,6.377-13.24,11.381c-6.833,8.769-10.94,19.97-14.563,29.852
		c-0.825,2.25-1.604,4.375-2.389,6.404c-8.882,22.958-15.557,46.552-19.837,70.126c-3.797,20.907-3.194,45.941,1.613,66.966
		c6.464,28.272,19.993,47.96,39.122,56.936c1.354,0.636,2.805,0.947,4.246,0.947c2.273,0,4.525-0.774,6.349-2.273
		c2.98-2.448,4.287-6.393,3.358-10.136c-3.602-14.51-9.207-27.098-14.628-39.271c-9.689-21.762-18.058-40.556-13.795-66.192
		c2.255-13.565,7.311-27.669,12.201-41.309c2.092-5.836,4.255-11.871,6.177-17.8c4.19-12.927,7.286-15.63,15.561-22.852
		c2.361-2.061,5.036-4.396,8.12-7.303c2.38-2.244,4.733-4.716,7.008-7.106c7.266-7.634,14.778-15.527,23.143-16.083
		c0.517-0.034,1.062-0.052,1.619-0.052c11.744,0,29.128,7.478,41.481,14.477c28.287,16.024,57.813,35.994,62.338,62.602
		c6.415,37.726-7.807,89.727-16.856,117.366c-12.45,38.028-29.014,72.491-47.902,99.662c-4.263,6.133-6.969,6.133-7.987,6.133
		c-3.994,0-10.038-3.4-16.437-7c-2.987-1.68-6.075-3.418-9.405-5.087c-5.037-2.525-10.758-3.805-17.005-3.805
		c-12.647,0-25.489,5.202-35.807,9.381c-1.75,0.709-3.403,1.379-4.967,1.988c-16.399,6.385-36.483,19.514-52.413,34.262
		c-14.051,13.009-31.281,33.123-33.564,55.063c-0.352,3.375,1.033,6.698,3.676,8.825c1.801,1.45,4.021,2.21,6.271,2.21
		c1.051,0,2.11-0.166,3.136-0.505c13.553-4.477,24.72-13.304,35.519-21.84c13.736-10.858,26.711-21.115,43.252-21.532
		c0.279-0.007,0.557-0.011,0.836-0.011c15.388,0.001,32.438,10.514,48.929,20.68c11.241,6.931,22.865,14.097,34.4,18.199
		c9.091,3.233,18.609,4.872,28.289,4.872c21.671,0,44.438-8.246,65.84-23.847c1.1-0.802,2.773-1.975,4.892-3.461
		c8.678-6.085,23.203-16.271,35.506-26.872c18.772-16.173,25.48-27.375,22.43-37.453c-2.046-6.761-7.782-10.797-15.343-10.797
		c-11.215,0-26.378,8.772-45.035,20.239c-4.205,2.585-9.438,5.802-11.023,6.445c-1.863,0.737-10.601,2.116-23.255,2.116
		c-17.495,0-27.591-2.53-31.497-4.408c0.223-0.278,0.492-0.593,0.814-0.944c15.4-16.756,28.077-35.989,40.335-54.589
		c6.224-9.444,12.66-19.209,19.263-28.329c3.751-5.182,3.586-11.048,3.453-15.763c-0.092-3.262-0.171-6.079,0.86-7.96
		c5.587-10.196,9.352-21.155,12.992-31.752c0.506-1.473,1.01-2.94,1.516-4.398c3.75-10.79,6.466-21.885,9.093-32.615
		c5.072-20.72,9.863-40.291,21.393-56.493c16.068-22.58,35.839-43.318,54.959-63.374c3.887-4.078,7.907-8.294,11.836-12.463
		c1.69-1.793,3.378-3.589,5.066-5.385c8.148-8.667,16.53-17.585,25.075-26.131c0.483,1.374,0.919,2.715,1.229,3.667
		c0.914,2.813,1.703,5.243,2.725,7.206c6.602,12.679,15.667,22.859,24.434,32.705c8.584,9.64,16.692,18.745,22.108,29.631
		c13.403,26.94,11.642,53-5.386,79.67c-5.053,7.914-15.444,21.908-26.319,33.932c-18.708,20.684-26.615,22.142-27.455,22.24
		c-0.108,0.013-0.234,0.02-0.373,0.02c-3.183,0-8.979-2.823-14.093-5.314c-7.184-3.499-14.612-7.117-22.446-7.686
		c-1.074-0.078-2.155-0.118-3.213-0.118c-16.785,0-28.273,9.738-38.409,18.331c-0.638,0.541-1.277,1.083-1.921,1.625
		c-2.822,2.378-6.119,4.958-9.61,7.688c-18.907,14.79-42.437,33.197-43.541,58.69c-0.133,3.074,1.156,6.039,3.496,8.037
		c1.827,1.56,4.135,2.396,6.495,2.396c0.663,0,1.329-0.066,1.99-0.2c10.73-2.178,18.586-8.967,25.518-14.958
		c5.505-4.758,10.706-9.251,16.447-10.746c1.881-0.49,3.806-0.728,5.884-0.728c11.258,0,23.663,7.084,34.607,13.333l1.219,0.696
		c26.593,15.162,48.6,39.131,67.279,73.277c10.104,18.469,47.071,71.19,83.178,71.19c1.412,0,2.825-0.082,4.201-0.242
		c2.294-0.269,4.627-0.399,7.131-0.399c2.73,0,5.407,0.155,7.996,0.304c2.638,0.152,5.366,0.31,8.178,0.31
		c6.406,0,15.187-0.734,26.32-6.457c4.684-2.407,9.207-5.137,13.604-7.862c-2.843,5.601-4.911,11.638-4.991,18.204
		c-0.04,3.273,1.525,6.359,4.189,8.261c1.719,1.227,3.755,1.86,5.811,1.86c1.132,0,2.27-0.192,3.364-0.583
		c16.457-5.882,30.201-25.453,42.327-42.72c5.278-7.515,10.263-14.613,14.544-19.223l1.077-1.161
		c16.217-17.477,34.597-37.286,56.918-37.285c0.524,0,1.055,0.011,1.578,0.033c26.383,1.089,47.697,17.746,70.264,35.381
		c20.498,16.019,41.694,32.583,68.131,38.283c0.235,0.082,0.985,0.619,1.482,0.975c1.903,1.364,5.091,3.646,9.624,3.646
		c6.987,0,11.499-5.514,12.981-7.326c4.741-5.776,9.638-11.681,14.544-17.54c2.148-2.572,4.317-5.083,6.614-7.742
		c7.62-8.821,15.5-17.943,21.659-28.385c3.97-6.729,8.413-13.409,12.711-19.869c12.116-18.211,24.645-37.043,29.533-60.784
		c6.863-33.329-7.276-61.124-20.951-88.003c-9.663-18.995-18.79-36.936-20.901-56.589l-0.039-0.365
		c-2.548-23.724-5.719-53.25,11.715-68.715c7.479-6.633,18.222-10.894,29.596-15.404c11.185-4.435,22.749-9.021,32.567-16.422
		c20.142-15.183,30.745-36.426,40.999-56.971c2.688-5.385,5.467-10.954,8.338-16.22c5.629-10.321,8.569-34.131,0.367-47.946
		C1070.667,63.808,1064.213,60.012,1056.587,60.012L1056.587,60.012z M1000.161,144.87c2.884-8.056,8.097-16.916,15.198-25.63
		c9.687-11.889,21.826-22.005,32.265-26.987c0.509,0.016,0.998,0.023,1.409,0.025c1.84,0.394,2.055,0.953,2.131,1.149
		c2.031,5.293-4.831,21.1-11.633,29.49C1031.865,132.374,1014.735,140.929,1000.161,144.87L1000.161,144.87z M755.92,358.92
		c-0.574-1.053-1.33-2.676-2.214-5.127c-24.314-67.421,4.404-157.192,46.627-208.548c12.011,19.778,22.687,36.926,45.264,52.712
		c17.579,12.291,35.088,18.047,52.02,23.614c4.127,1.356,8.328,2.737,12.57,4.225c-7.256,8.523-17.386,16.439-27.268,24.161
		c-5.418,4.233-10.535,8.231-15.228,12.353c-14.495,12.733-32.535,28.58-49.87,43.663c-14.697,12.789-30.492,26.244-48.286,41.136
		c-2.432,2.036-4.703,4.089-6.706,5.901C760.653,354.979,757.899,357.469,755.92,358.92L755.92,358.92z"/>
</g>
<g>
	<path fill-rule="evenodd" clip-rule="evenodd" d="M504.748,1127.079c-8.165,0-21.288-2.179-37.951-6.301l-0.619-0.153
		c-19.966-4.866-54.576-22.537-65.453-45.011c-4.657-9.622-4.839-19.249-0.543-28.611c2.434-5.304,8.83-9.376,15.016-13.314
		c3.16-2.012,8.899-5.666,9.97-7.589c-3.163-4.938-27.321-14.249-35.389-17.358c-4.967-1.915-8.891-3.427-11-4.496
		c-18.833-9.547-30.442-21.352-37.642-38.274c-7.579-17.812,7.286-29.177,18.139-37.475c2.56-1.958,5.035-3.85,7.118-5.694
		c-6.714-4.919-13.87-9.468-20.832-13.893c-2.803-1.781-5.603-3.561-8.377-5.364c-5.408-3.514-10.592-8.382-15.605-13.089
		c-5.678-5.332-11.549-10.845-17.147-13.719c-13.41-6.886-26.989-24.956-25.542-42.143c1.083-12.86,17.357-23.296,30.435-31.68
		c1.919-1.23,3.79-2.43,5.486-3.561c-6.234-4.596-15.599-10.166-25.381-15.984c-32.175-19.14-68.643-40.832-66.934-64.678
		c0.875-12.211,11.387-22.334,32.137-30.948c19.767-8.206,41.774-12.195,67.278-12.195c27.887,0,56.444,4.733,84.061,9.312
		c23.096,3.829,44.911,7.445,66.261,8.496c17.352,0.854,35.409,2.386,52.871,3.866c27.621,2.342,56.183,4.764,84.08,4.764
		c30.542,0,56.649-2.971,79.813-9.081c25.41-6.704,54.185-18.896,58.737-33.008c1.562-4.84,0.108-9.88-4.442-15.408
		c-9.462-11.494-19.139-18.766-29.583-22.23c-1.551-0.514-5.18-1.173-9.021-1.87c-17.03-3.09-40.354-7.322-39.745-21.432
		c0.143-3.319,2.092-8.887,13.538-8.887c31.521,0,130.67,40.114,143.251,50.967l0.384,0.331
		c11.96,10.315,28.34,24.442,29.363,40.844c0.453,7.261-2.163,14.094-7.775,20.31c-13.729,15.202-32.936,21.313-51.51,27.222
		c-9.848,3.133-19.248,6.123-27.599,10.326c6.213,5.063,15.75,8.147,25.731,11.374c10.134,3.277,20.612,6.665,28.465,12.595
		l0.242,0.183c12.384,9.35,41.384,31.246,33.232,51.347c-8.073,19.902-25.77,26.011-42.883,31.918
		c-5.828,2.012-11.854,4.093-17.307,6.691c-11.842,5.646-25.035,8.283-37.794,10.835c-11.932,2.386-23.318,4.663-33.268,9.162
		c7.519,5.516,16.708,8.398,26.327,11.417c17.621,5.528,37.593,11.794,45.483,37.057c3.979,12.74,2.13,24.851-5.35,35.021
		c-12.22,16.619-38.264,25.935-59.741,27.291c-0.738,0.36-1.678,0.59-2.871,0.59c0,0,0.001,0,0,0c-1.289,0-3.873-0.087-5.728-0.168
		c-1.086-0.047-2.102-0.1-2.847-0.149c-0.55-0.037-1.05-0.105-1.503-0.2c-3.629,0.008-7.258,0.027-10.887,0.046
		c-4.894,0.025-9.787,0.051-14.68,0.051c-8.572,0-19.893-0.067-31.446-0.597c-0.369-0.018-9.14-0.414-18.97-0.414
		c-5.315,0-9.418,0.117-12.579,0.29c5.992,1.973,13.163,3.435,20.59,4.948c23.82,4.854,50.818,10.356,55.9,36.275
		c2.173,11.074,0.291,20.316-5.595,27.47c-9.059,11.008-26.871,16.359-54.455,16.36c-10.227,0-19.742-0.729-26.69-1.261
		l-0.147-0.012c-3.655-0.28-7.688-0.652-11.958-1.046c-12.478-1.151-26.621-2.457-40.973-2.457
		c-32.087,0-52.332,6.831-61.892,20.882c-2.747,4.037,4.654,13.139,9.551,19.161c2.955,3.634,5.507,6.772,6.889,9.61
		c1.9,3.901,0.762,6.759-0.086,8.115C514.769,1126.6,508.921,1127.079,504.748,1127.079z M573.031,1023.626
		c1.757,0,3.811,0.113,5.588,0.696c0.792-0.297,1.603-0.594,2.431-0.896c9.976-3.648,17.052-6.771,17.24-13.757
		c0.171-6.341-5.658-9.449-15.277-13.814c-4.407-2-8.965-4.067-12.349-6.894c-1.454-1.214-2.808-2.36-4.085-3.443
		c-11.577-9.812-15.908-13.482-33.106-14.33c-7.378-0.364-14.649-1.236-21.682-2.08c-9.257-1.11-18.001-2.159-27.016-2.159
		c-3.236,0-6.253,0.135-9.226,0.412c-19.526,1.82-32.333,5.729-31.376,18.891c0.701,9.633,10.018,14.758,19.881,20.184
		c3.26,1.794,6.63,3.647,9.557,5.654c8.922,6.117,19.767,6.961,30.157,6.961c2.827,0,5.733-0.068,8.543-0.135
		c2.824-0.066,5.745-0.135,8.601-0.135c2.093,0,3.961,0.036,5.71,0.111c13.443,0.575,26.738,2.682,39.596,4.718
		c1.11,0.177,2.223,0.353,3.334,0.527C570.459,1023.818,571.6,1023.626,573.031,1023.626z M636.542,939.354
		c1.352,0,2.618,0.551,3.539,1.474c1.644-0.354,3.43-0.713,5.349-1.1c22.095-4.448,43.531-10.086,41.905-25.562
		c-2.434-23.138-23.922-36.786-42.858-39.675c-33.547-5.117-68.046-8.203-101.409-11.188c-34.884-3.121-70.956-6.348-106.271-11.908
		c-1.857-0.293-5.809-0.605-11.328-0.605c-22.736,0-40.685,4.61-44.663,11.473c-0.528,0.911-2.136,3.684,1.288,9.662
		c10.021,17.498,51.164,49.66,72.107,53.238c19.106,3.262,39.199,4.661,58.629,6.015c10.535,0.734,21.43,1.493,32.038,2.54
		c5.939,0.586,11.894,1.229,17.652,1.85c20.113,2.169,39.111,4.219,58.835,4.219c5.061,0,10.047-0.142,14.82-0.419
		C636.298,939.358,636.42,939.354,636.542,939.354z M398.433,725.98c-25.37,1.709-72.594,4.891-73.147,27.746
		c-0.379,15.658,52.849,43.758,75.42,51.428c32.104,10.909,70.357,16.293,116.947,16.462c16.813,0.064,33.179,1.877,49.005,3.63
		c15.634,1.731,31.8,3.521,47.94,3.521c10.869,0,20.847-0.794,30.504-2.428c35.732-6.046,75.679-15.166,101.024-36.962
		c2.06-1.771,2.872-3.67,2.634-6.155c-0.738-7.698-11.524-18.503-18.625-22.559c-17.823-10.181-37.619-15.563-57.248-15.563
		c-1.777,0-3.574,0.045-5.341,0.134c-6.433,0.325-12.597,0.906-18.558,1.469c-8.937,0.844-17.377,1.64-26.584,1.641
		c-4.013,0-7.822-0.152-11.647-0.464c-25.767-2.1-45.622-3.884-64.38-5.785c-48.239-4.893-91.561-10.345-132.298-16.65
		c-2.357,0.848-5.389,0.854-7.779,0.854c-0.019,0-0.037,0-0.055,0c-1.539,0-2.736-0.227-3.663-0.604
		C401.258,725.79,399.872,725.883,398.433,725.98z"/>
	<path fill="#666666" d="M678.483,595.07c29.813,0,128.072,39.477,139.985,49.753c15.444,13.322,39.843,34.064,21.526,54.347
		c-21.354,23.646-58.101,24.124-83.43,39.642c11.353,15.962,42.63,16.692,59.216,29.217c11.027,8.327,38.611,28.995,31.854,45.66
		c-9.861,24.31-36.412,25.823-57.707,35.975c-24.295,11.582-55.229,10.012-77.682,23.45c22.398,23.471,63.802,12.582,75.81,51.025
		c11.767,37.673-35.656,55.994-65.679,55.994c-1.317,0-2.602-0.035-3.846-0.105c-9.77,0-19.541,0.102-29.311,0.102
		c-10.408,0-20.814-0.115-31.216-0.592c-1.666-0.076-10.068-0.419-19.198-0.419c-14.666,0-31.211,0.884-24.734,5.179
		c21.573,14.306,76.886,7.343,83.739,42.297c6.303,32.122-26.838,37.868-55.144,37.868c-10.108,0-19.596-0.732-26.456-1.258
		c-14.006-1.072-33.655-3.518-53.313-3.518c-26.69,0-53.396,4.506-66.026,23.069c-6.847,10.065,12.225,25.857,16.079,33.772
		c2.017,4.142-1.914,5.551-8.204,5.551c-12.557,0-34.521-5.613-37.385-6.312c-23.81-5.804-77.703-33.845-62.635-66.68
		c3.908-8.516,25.978-15.642,25.549-23.325c-0.51-9.158-41.528-22.07-49.235-25.978c-16.271-8.248-28.036-18.694-35.302-35.771
		c-8.592-20.192,18.813-29.96,28.17-41.79c-10.72-8.425-22.573-15.445-33.999-22.871c-11.181-7.266-21.871-21.25-33.194-27.063
		c-12.326-6.329-24.065-22.759-22.844-37.275c1.194-14.183,29.132-27.219,39.116-35.393
		c-23.843-22.92-152.073-71.707-66.438-107.259c21.014-8.725,42.991-11.813,65.361-11.813c50.035,0,102.085,15.438,150.075,17.802
		c44.396,2.186,91.205,8.636,137.197,8.636c27.553,0,54.81-2.313,81.088-9.246c18.969-5.005,83.059-24.627,56.88-56.429
		c-8.541-10.376-18.91-19.5-31.869-23.798c-8.036-2.666-45.895-5.597-45.345-18.34C670.063,596.311,673.201,595.07,678.483,595.07
		 M411.144,719.928c-20.592,2.549-90.067,1.082-90.857,33.678c-0.512,21.138,61.127,50.274,78.81,56.283
		c37.604,12.777,79.138,16.585,118.538,16.728c33.242,0.127,64.278,7.151,96.963,7.151c10.245,0,20.649-0.689,31.338-2.498
		c34.508-5.839,76.358-14.803,103.45-38.101c13.496-11.606-7.398-31.493-16.771-36.847c-18.142-10.362-38.834-16.22-59.729-16.221
		c-1.864,0-3.727,0.047-5.593,0.141c-15.919,0.803-29.659,3.103-44.89,3.103c-3.646,0-7.374-0.132-11.241-0.447
		c-21.442-1.747-42.878-3.606-64.282-5.776C501.41,732.509,456.26,726.996,411.144,719.928 M621.356,944.786
		c5.024,0,10.079-0.133,15.181-0.432c-5.147,0.301-4.684,0.505-3.195,0.505c1.263,0,3.264-0.147,3.195-0.505
		c0.148,0.779,0.297,1.559,0.445,2.337c15.465-4.105,58-7.591,55.326-33.048c-2.552-24.266-24.03-40.579-47.077-44.095
		c-68.741-10.486-138.702-12.235-207.657-23.093c-2.413-0.38-6.771-0.666-12.106-0.666c-22.186,0-61.273,4.943-47.714,28.619
		c10.846,18.938,53.648,51.932,75.604,55.683c29.781,5.084,60.93,5.632,91.019,8.602C570.47,941.269,595.5,944.786,621.356,944.786
		 M503.768,1024.05c5.742,0,11.519-0.27,17.144-0.27c1.852,0,3.685,0.029,5.496,0.106c17.075,0.73,33.747,3.96,50.613,6.457
		c9.477-4.126,25.906-7.181,26.267-20.54c0.401-14.912-20.517-17.247-29.42-24.681c-15.046-12.563-19.253-17.899-40.149-18.93
		c-16.566-0.817-32.465-4.245-48.944-4.245c-3.206,0-6.432,0.13-9.69,0.434c-14.915,1.391-37.34,4.413-35.899,24.231
		c1.181,16.227,20.217,21.796,31.598,29.6C480.595,1022.939,492.11,1024.05,503.768,1024.05 M411.144,719.928
		c4.761,0.746-1.653,1.372-4.898,1.372C403.725,721.3,403.115,720.922,411.144,719.928 M718.531,980.027
		c6.918,0.392,7.779,0.522,6.335,0.522C721.978,980.55,709.87,980.027,718.531,980.027 M573.031,1028.626
		c2.608,0,6.602,0.581,3.99,1.718C569.233,1029.19,570.458,1028.626,573.031,1028.626 M678.483,585.07
		c-16.65,0-18.396,10.465-18.533,13.672c-0.138,3.175,0.61,9.287,7.161,14.537c2.968,2.38,6.87,4.401,11.93,6.181
		c7.965,2.802,17.275,4.491,24.756,5.849c3.339,0.606,7.123,1.292,8.34,1.696c9.523,3.159,18.452,9.917,27.297,20.662
		c5.025,6.104,3.949,9.44,3.544,10.696c-3.191,9.891-25.396,21.83-55.254,29.708c-22.741,5.999-48.432,8.915-78.537,8.915
		c-27.686,0-56.14-2.412-83.657-4.746c-17.506-1.484-35.608-3.019-53.048-3.878c-21.062-1.037-42.739-4.63-65.688-8.435
		c-27.816-4.611-56.58-9.379-84.878-9.379c-26.175,0-48.809,4.114-69.196,12.578c-22.667,9.41-34.183,20.927-35.207,35.208
		c-1.93,26.923,35.947,49.454,69.365,69.332c6.863,4.083,13.517,8.04,18.934,11.563c-13.854,8.889-30.636,19.924-31.901,34.945
		c-1.642,19.507,13.07,39.221,28.241,47.01c4.973,2.554,10.583,7.821,16.009,12.916c5.173,4.857,10.522,9.88,16.304,13.637
		c2.803,1.822,5.66,3.638,8.422,5.394c5.264,3.346,10.354,6.581,15.25,9.941c-0.628,0.484-1.262,0.97-1.893,1.451
		c-5.758,4.402-12.284,9.393-16.725,15.737c-6.002,8.574-7.031,18.142-2.978,27.668c7.693,18.083,20.024,30.659,39.982,40.775
		c2.335,1.185,6.164,2.66,11.462,4.702c6.293,2.426,14.125,5.444,20.913,8.586c3.872,1.791,6.556,3.234,8.405,4.346
		c-1.612,1.112-3.424,2.266-4.786,3.133c-6.798,4.328-13.827,8.803-16.875,15.446c-4.879,10.633-4.676,22.001,0.587,32.876
		c12.822,26.493,51.868,43.57,68.769,47.69l0.601,0.147c11.889,2.941,28.333,6.448,39.152,6.448c3.417,0,12.492,0,16.852-6.974
		c2.376-3.8,2.501-8.521,0.343-12.955c-1.635-3.355-4.355-6.701-7.505-10.575c-2.46-3.025-5.004-6.154-6.853-9.106
		c-1.583-2.528-2.019-3.947-2.138-4.529c8.699-12.281,27.502-18.253,57.451-18.253c14.122,0,28.144,1.294,40.515,2.436
		c4.289,0.396,8.341,0.77,12.034,1.053l0.139,0.011c7.03,0.539,16.659,1.276,27.081,1.276c29.172,0,48.247-5.948,58.315-18.184
		c6.882-8.362,9.115-18.997,6.641-31.61c-2.593-13.225-10.855-23.313-24.558-29.986c-3.861-1.881-7.945-3.413-12.153-4.719
		c6.754,0.141,13.046,0.166,18.308,0.166c4.911,0,9.892-0.025,14.708-0.051c3.336-0.018,6.752-0.035,10.159-0.044
		c0.198,0.031,0.399,0.059,0.604,0.081c0.301,0.032,0.734,0.07,1.265,0.105c0.952,0.064,2.138,0.12,2.964,0.156
		c1.971,0.086,4.574,0.173,5.945,0.173c1.535,0,2.879-0.239,4.046-0.654c21.972-1.564,49.068-10.869,62.595-29.265
		c8.459-11.504,10.566-25.154,6.094-39.474c-3.908-12.513-10.839-21.906-21.189-28.718c-8.622-5.675-18.255-8.697-27.57-11.62
		c-5.606-1.759-11.06-3.47-16.029-5.686c7.017-2.132,14.614-3.651,22.454-5.219c13.059-2.611,26.562-5.313,38.966-11.226
		c5.197-2.478,10.826-4.421,16.786-6.478c17.322-5.98,36.957-12.758,45.884-34.765c4.429-10.921,0.763-23.096-10.896-36.186
		c-7.999-8.982-17.988-16.524-23.957-21.031l-0.241-0.183c-8.525-6.438-19.412-9.958-29.94-13.361
		c-5.694-1.842-11.487-3.714-16.393-5.956c5.747-2.249,11.896-4.205,18.237-6.223c19.208-6.11,39.069-12.429,53.705-28.636
		c6.548-7.251,9.595-15.316,9.055-23.972c-1.154-18.502-18.455-33.424-31.088-44.319L825,637.251
		c-9.201-7.938-46.007-22.921-66.305-30.522C737.098,598.64,697.959,585.07,678.483,585.07L678.483,585.07z M406.246,731.3
		c1.602,0,3.622-0.111,5.272-0.292c1.119-0.122,2.055-0.271,2.86-0.457c40.513,6.249,83.59,11.66,131.495,16.52
		c18.796,1.905,38.683,3.692,64.479,5.794c3.961,0.323,7.903,0.48,12.054,0.48c9.442,0,18.396-0.846,27.054-1.662
		c5.907-0.558,12.017-1.134,18.34-1.453c1.683-0.085,3.395-0.128,5.089-0.128c18.762,0,37.7,5.154,54.769,14.904
		c5.988,3.42,15.596,13.156,16.127,18.694c0.059,0.611,0.098,1.015-0.917,1.887c-24.416,20.997-63.543,29.892-98.598,35.822
		c-9.379,1.588-19.083,2.358-29.67,2.358c-15.864,0-31.178-1.695-47.391-3.491c-15.956-1.768-32.456-3.595-49.534-3.66
		c-46.042-0.167-83.776-5.464-115.359-16.196c-8.305-2.821-27.524-11.371-44.25-21.543c-22.949-13.958-27.835-22.8-27.781-25.029
		c0.063-2.602,0.255-10.518,21.42-16.503c14.877-4.207,33.481-5.461,47.065-6.376c1.079-0.072,2.128-0.144,3.146-0.214
		C403.142,731.099,404.574,731.3,406.246,731.3L406.246,731.3z M621.356,934.786c-19.455,0-38.324-2.035-58.3-4.19
		c-5.77-0.622-11.736-1.266-17.697-1.854c-10.68-1.054-21.61-1.815-32.182-2.552c-19.309-1.345-39.275-2.735-58.137-5.955
		c-8.438-1.441-22.868-9.218-37.656-20.293c-14.343-10.741-26.493-22.714-30.953-30.502c-0.333-0.58-1.958-3.535-1.301-4.67
		c2.503-4.318,18.638-8.979,40.337-8.979c5.236,0,8.957,0.293,10.551,0.544c35.48,5.587,71.637,8.821,106.604,11.949
		c33.287,2.979,67.707,6.058,101.101,11.151c17.099,2.608,36.483,14.753,38.64,35.255c0.238,2.272,0.735,7.003-9.541,12.04
		c-8.251,4.045-19.411,6.292-28.378,8.097c-1.138,0.229-2.23,0.449-3.276,0.665c-1.399-0.732-2.979-1.139-4.62-1.139
		c-0.243,0-0.487,0.009-0.732,0.027C631.159,934.649,626.295,934.786,621.356,934.786L621.356,934.786z M503.768,1014.05
		c-9.585,0-19.53-0.737-27.33-6.085c-3.128-2.146-6.608-4.06-9.974-5.911c-10.454-5.75-16.835-9.708-17.305-16.166
		c-0.493-6.773,3.828-11.402,26.854-13.549c2.817-0.263,5.684-0.391,8.761-0.391c8.717,0,17.316,1.032,26.421,2.124
		c7.118,0.854,14.478,1.736,22.03,2.108c15.506,0.765,18.602,3.389,30.121,13.151c1.286,1.09,2.648,2.245,4.112,3.467
		c3.905,3.261,8.776,5.472,13.488,7.609c8.771,3.98,12.425,6.128,12.345,9.126c-0.095,3.513-4.577,5.765-13.96,9.196
		c-0.347,0.127-0.695,0.254-1.046,0.383c-1.51-0.313-3.25-0.487-5.255-0.487c-1.436,0-2.699,0.144-3.812,0.396
		c-0.744-0.117-1.485-0.234-2.222-0.352c-12.995-2.059-26.434-4.188-40.162-4.775c-1.821-0.077-3.759-0.115-5.924-0.115
		c-2.915,0-5.865,0.069-8.719,0.137C509.412,1013.981,506.536,1014.05,503.768,1014.05L503.768,1014.05z"/>
</g>
</svg>
