<?xml version="1.0" encoding="utf-8"?>
<!-- Generator: Adobe Illustrator 16.0.0, SVG Export Plug-In . SVG Version: 6.00 Build 0)  -->
<!DOCTYPE svg PUBLIC "-//W3C//DTD SVG 1.1//EN" "http://www.w3.org/Graphics/SVG/1.1/DTD/svg11.dtd">
<svg version="1.1" xmlns="http://www.w3.org/2000/svg" xmlns:xlink="http://www.w3.org/1999/xlink" x="0px" y="0px"
	 width="153.667px" height="120.667px" viewBox="0 0 153.667 120.667" enable-background="new 0 0 153.667 120.667"
	 xml:space="preserve">
<g id="Layer_1" display="none">
	
		<image display="inline" overflow="visible" width="5312" height="2988" xlink:href="915E374A.jpg"  transform="matrix(0 0.0988 -0.0988 0 229.9424 -254.749)">
	</image>
</g>
<g id="Layer_2">
	<g>
		<path d="M16.167,12.544c0,0,11.167-14.724,18.5-4.131c0,0,7.5,7.181,5.667,25.852c0,0-12.506,44.136-12.84,78.784
			c0,0,0.5,4.493-2,5.39c0,0-5.084,1.709-13.751,0c0,0-1.333-0.273-1.333-4.759c0,0,7.924-60.386,11.924-89.827
			c0,0,1.333-9.964-0.25-8.616C22.083,15.237,10.083,20.084,16.167,12.544z"/>
	</g>
	<g>
		<path d="M28.96,87.991c-1.489,0.001-2.102-0.646-2.353-1.189c-0.467-1.01-0.494-3.054,4.654-9.12
			c0.325-0.356,30.705-33.634,31.994-43.942c0.01-0.094,1.102-10.848-2.093-17.238c-0.42-1.073-1.88-3.954-3.397-3.954
			c-0.531,0-1.097,0.366-1.682,1.091c-0.165,0.169-10.87,10.806-17.233,24.838l-0.052,0.114l-0.086,0.091
			c-0.208,0.221-0.947,0.94-1.732,0.94c-0.404,0-0.76-0.183-1.001-0.515c-0.557-0.769-0.798-2.563,1.642-10.047l0.018-0.055
			l0.026-0.051c0.495-0.98,12.25-23.999,23.647-23.999c0.407,0,0.814,0.03,1.21,0.088c0.722,0.02,7.251,0.356,12.154,6.188
			c4.937,5.871,6.417,15.087,4.397,27.391c-0.091,0.345-1.91,6.651-9.71,14.451c-0.021,0.021-26.147,24.146-37.022,34.146
			l-0.109,0.101l-0.139,0.052C32.024,87.395,30.394,87.991,28.96,87.991z"/>
		<path d="M61.311,5.705c0.384,0,0.766,0.028,1.147,0.087c0,0,21.208,0.208,15.875,32.708c0,0-1.75,6.292-9.5,14.042
			c0,0-26.125,24.125-37,34.125c0,0-1.557,0.574-2.873,0.574c-2.1,0-3.584-1.465,2.873-9.074c0,0,30.833-33.669,32.167-44.335
			c0,0,1.167-10.999-2.167-17.666c0,0-1.688-4.369-4.068-4.369c-0.704,0-1.467,0.381-2.265,1.369c0,0-10.833,10.667-17.333,25
			c0,0-0.665,0.705-1.187,0.705c-0.786,0-1.25-1.594,1.354-9.579C38.333,29.292,50.243,5.705,61.311,5.705 M61.311,4.205
			c-11.854,0-23.813,23.414-24.317,24.411l-0.052,0.102l-0.036,0.109c-2.664,8.172-2.189,9.818-1.535,10.72
			c0.38,0.523,0.966,0.824,1.608,0.824c1.056,0,1.945-0.822,2.278-1.176l0.171-0.182l0.104-0.229
			c6.302-13.896,16.913-24.445,17.02-24.551l0.061-0.06l0.054-0.066c0.417-0.516,0.817-0.812,1.098-0.812
			c0.766,0,2.042,1.801,2.67,3.412l0.025,0.064l0.032,0.063c3.095,6.189,2.028,16.731,2.017,16.838
			c-1.042,8.332-23.295,34.213-31.781,43.479l-0.019,0.021l-0.018,0.021c-4.243,5-5.667,7.967-4.763,9.92
			c0.281,0.607,1.049,1.625,3.034,1.625c1.539,0,3.207-0.599,3.392-0.667l0.278-0.103l0.218-0.2
			C43.6,77.884,69.589,53.884,69.851,53.643l0.022-0.02l0.021-0.021c7.938-7.938,9.809-14.428,9.885-14.7l0.021-0.079l0.013-0.08
			c2.056-12.53,0.521-21.949-4.563-27.995c-5.006-5.953-11.668-6.417-12.661-6.453C62.169,4.235,61.74,4.205,61.311,4.205
			L61.311,4.205z"/>
	</g>
	<g>
		<path d="M76.059,118.223c-3.699,0-9.043-1.907-11.662-5.442c-3.946-5.328-7.98-12.894-7.98-28.612
			c0-14.366-0.461-14.562-3.459-15.835c-0.34-0.145-0.708-0.301-1.105-0.484c-1.184-0.546-1.756-1.247-1.7-2.082
			c0.134-1.983,4.341-3.424,5.627-3.817c0.02-0.009,1.333-0.476,3.211-0.476c3,0,7.199,1.157,10.168,6.672
			c3.902,7.246,3.393,11,3.057,13.483c-0.072,0.527-0.133,0.982-0.133,1.372c0,0.534-0.117,1.621-0.279,3.126
			c-0.548,5.09-1.689,15.682,0.517,19.138c1.082,1.694,2.782,3.403,4.283,4.911c2.217,2.229,3.968,3.988,3.874,5.586
			c-0.035,0.582-0.317,1.099-0.818,1.494C78.86,117.889,77.615,118.223,76.059,118.223z"/>
		<path d="M58.991,62.224c2.706,0,6.686,1.035,9.508,6.277c4.667,8.667,2.833,12.167,2.833,14.5s-2.624,18.001,0.355,22.667
			s10.032,9,7.505,11c-0.688,0.544-1.805,0.805-3.135,0.805c-3.557,0-8.633-1.863-11.059-5.139
			c-3.333-4.5-7.833-11.832-7.833-28.166s-0.667-15-5-17S56,62.667,56,62.667S57.223,62.224,58.991,62.224 M58.992,60.724
			L58.992,60.724c-1.852,0-3.179,0.42-3.46,0.517c-2.721,0.837-5.979,2.29-6.127,4.476c-0.055,0.81,0.271,1.954,2.134,2.814
			c0.405,0.187,0.78,0.346,1.126,0.493c1.605,0.682,1.987,0.844,2.356,2.23c0.541,2.026,0.646,6.27,0.646,12.914
			c0,15.937,4.108,23.633,8.127,29.059c2.764,3.732,8.382,5.746,12.265,5.746c1.727,0,3.133-0.391,4.066-1.129
			c0.85-0.672,1.067-1.479,1.101-2.037c0.115-1.934-1.741-3.798-4.09-6.159c-1.474-1.481-3.145-3.16-4.183-4.786
			c-2.064-3.234-0.9-14.04-0.403-18.654c0.171-1.584,0.284-2.632,0.284-3.206c0-0.339,0.059-0.771,0.126-1.271
			c0.328-2.423,0.878-6.479-3.139-13.939C66.51,61.642,61.615,60.724,58.992,60.724L58.992,60.724z"/>
	</g>
	<g>
		<path d="M99.846,117.952c-5.909,0-10.548-1.337-12.728-3.667c-5.01-5.359-2.579-14.831-0.971-21.099
			c0.319-1.243,0.595-2.316,0.784-3.234c1.134-5.497-0.888-7.075-4.763-7.945c-1.139-0.256-2.669-0.734-2.817-1.931
			c-0.157-1.271,1.479-2.166,1.81-2.333c3.261-1.849,6.476-2.795,9.523-2.795c8.495,0,13.487,7.354,13.895,11.472
			c0.26,2.623-0.903,4.383-2.376,6.61c-1.602,2.422-3.595,5.438-4.633,10.945c-0.494,2.622-0.258,4.539,0.703,5.698
			c0.742,0.895,1.928,1.349,3.525,1.349c2.159,0,4.63-0.881,5.955-1.752c3.334-2.188,9.537-10.524,16.14-19.608
			c7.263-9.992,4.892-23.723,1.229-27.569c-3.25-3.414-19.508-5.002-25.497-5.325l-0.095-0.005l-0.09-0.028
			c-14.223-4.458-16.011-11.068-16.169-11.812C79.987,34.488,83.946,22.437,95.04,9.104c0.324-0.391,0.563-0.676,0.69-0.849
			c1.43-1.926,3.722-3.171,5.838-3.171c0.507,0,1.002,0.069,1.473,0.205c0.624,0.18,1.056,0.407,1.402,0.589
			c0.45,0.236,0.722,0.379,1.271,0.379c0.904,0,2.404-0.398,4.863-1.29c1.04-0.377,2.138-0.568,3.265-0.568
			c5.762,0,11.071,5.074,11.239,7.564l0.02,0.285c0.176,2.634,0.541,8.112,2.273,13.045c0.917,2.611,2.033,2.972,3.104,2.972
			c1.058-0.001,2.349-0.42,3.845-0.906c0.522-0.17,1.065-0.346,1.629-0.515c0.876-0.263,1.631-0.396,2.244-0.396
			c1.433,0,1.885,0.724,2.027,1.155c0.354,1.072-0.475,2.548-2.11,3.759c-1.677,1.243-5.582,2.501-9.802,2.501
			c-3.494,0-6.788-0.85-9.524-2.457c-5.849-3.435-6.255-5.691-7.066-10.188c-0.235-1.308-0.503-2.791-0.948-4.59
			c-0.724-2.925-1.221-3.651-1.405-3.83c-0.436,0.327-1.201,1.98-1.768,3.205c-0.289,0.626-0.597,1.29-0.927,1.957
			c-0.479,0.967-1.034,2.034-1.648,3.212c-2.371,4.548-5.617,10.776-8.649,19.434c-1.053,3.006-0.98,5.439,0.215,7.234
			c2.048,3.074,6.741,3.383,6.788,3.386c20.556,0.839,30.665,5.102,31.086,5.283c5.952,3.298,9.468,7.733,10.514,13.216
			c1.755,9.192-3.313,21.112-15.06,35.43C122.166,114.6,108.874,117.952,99.846,117.952z"/>
		<path d="M113.842,5.149c5.442,0,10.35,4.777,10.491,6.865c0.167,2.471,0.5,8.308,2.333,13.527
			c0.929,2.644,2.199,3.474,3.812,3.474c1.571,0,3.468-0.788,5.688-1.452c0.847-0.254,1.517-0.364,2.029-0.364
			c2.211,0,1.5,2.059-0.529,3.562c-1.471,1.09-5.131,2.354-9.355,2.354c-2.958,0-6.192-0.62-9.145-2.354
			c-7.167-4.209-5.666-6.229-7.666-14.312c-0.797-3.219-1.461-4.434-2.119-4.434c-0.995,0-1.977,2.775-3.381,5.612
			c-2.333,4.713-6.5,11.785-10.334,22.73c-3.834,10.944,7.667,11.617,7.667,11.617c20.667,0.843,30.833,5.223,30.833,5.223
			c20.333,11.28,6.5,33.674-4.829,47.481c-7.206,8.782-19.812,12.522-29.491,12.522c-5.537,0-10.117-1.225-12.18-3.43
			c-5.667-6.062-1.166-18.018,0-23.669s-0.833-7.818-5.333-8.828c-4.5-1.012-0.833-2.862-0.833-2.862
			c3.417-1.937,6.49-2.716,9.185-2.715c8.085,0.001,12.773,7.008,13.148,10.796c0.5,5.052-5,6.735-7,17.343
			c-1.157,6.139,1.704,7.936,4.966,7.936c2.375,0,4.963-0.952,6.367-1.875c3.333-2.188,9.167-9.934,16.334-19.794
			s5.333-24.151,1.166-28.528s-26-5.557-26-5.557C85.166,51.473,84,44.736,84,44.736C78.667,27.899,94.833,10.724,96.333,8.703
			c1.234-1.663,3.258-2.868,5.235-2.868c0.427,0,0.851,0.056,1.265,0.175c1.342,0.388,1.636,0.998,2.881,0.998
			c0.919,0,2.357-0.333,5.119-1.334C111.837,5.309,112.848,5.149,113.842,5.149 M113.842,3.649c-1.214,0-2.398,0.207-3.521,0.613
			c-2.309,0.837-3.816,1.245-4.607,1.245c-0.363,0-0.505-0.074-0.922-0.293c-0.357-0.187-0.846-0.444-1.543-0.645
			c-0.538-0.156-1.104-0.234-1.681-0.234c-2.382,0-4.85,1.331-6.44,3.475c-0.122,0.165-0.353,0.439-0.665,0.815
			c-11.26,13.532-15.267,25.813-11.912,36.502c0.254,1.074,2.401,7.852,16.667,12.323l0.18,0.056l0.188,0.011
			c8.212,0.444,22.26,2.22,24.995,5.093c3.595,3.776,5.48,17.292-1.293,26.612c-6.3,8.666-12.719,17.304-15.944,19.422
			c-1.232,0.81-3.532,1.629-5.544,1.629c-1.363,0-2.355-0.362-2.947-1.077c-0.801-0.965-0.989-2.723-0.545-5.08
			c1.011-5.36,2.958-8.306,4.522-10.672c1.493-2.259,2.782-4.209,2.497-7.097c-0.432-4.359-5.693-12.147-14.642-12.148
			c-3.17,0-6.498,0.974-9.896,2.894c-0.61,0.314-2.39,1.385-2.181,3.076c0.23,1.859,2.531,2.376,3.396,2.571
			c3.582,0.804,5.213,2.116,4.193,7.062c-0.187,0.9-0.46,1.966-0.776,3.199c-1.648,6.427-4.141,16.138,1.149,21.797
			c2.321,2.482,7.16,3.905,13.275,3.905c9.191,0,22.734-3.423,30.65-13.071c11.896-14.497,17.016-26.625,15.218-36.046
			c-1.091-5.711-4.73-10.32-10.82-13.698l-0.065-0.036l-0.068-0.03c-0.426-0.183-10.659-4.499-31.365-5.344
			c-0.014-0.001-4.365-0.31-6.188-3.062c-1.052-1.588-1.094-3.795-0.124-6.561c3.015-8.606,6.246-14.807,8.606-19.335
			c0.603-1.156,1.172-2.249,1.656-3.227c0.333-0.673,0.643-1.343,0.935-1.974c0.306-0.661,0.679-1.467,1.004-2.075
			c0.198,0.521,0.454,1.327,0.761,2.565c0.439,1.775,0.704,3.245,0.938,4.542c0.887,4.919,1.526,7.239,7.424,10.702
			c2.852,1.675,6.276,2.561,9.904,2.561c4.586,0,8.527-1.373,10.248-2.648c1.513-1.12,2.931-2.915,2.376-4.597
			c-0.165-0.502-0.764-1.67-2.739-1.67c-0.695,0-1.5,0.14-2.46,0.428c-0.568,0.17-1.118,0.348-1.646,0.52
			c-1.435,0.466-2.674,0.869-3.612,0.869c-0.571,0-1.528,0-2.396-2.471c-1.698-4.836-2.059-10.245-2.232-12.846l-0.019-0.286
			C125.619,8.805,119.735,3.65,113.842,3.649L113.842,3.649z"/>
	</g>
	<g>
		<path d="M139.244,117.234c-0.665,0-1.366-0.022-2.084-0.069c-2.739-0.175-4.427-1.041-5.017-2.574
			c-1.258-3.266,3.258-8.038,3.777-8.572l0.035-0.036l0.039-0.03c1.741-1.365,3.704-2.087,5.676-2.087
			c2.627,0,4.774,1.272,5.131,2.461c0.063,0.21,0.109,0.416,0.154,0.614c0.193,0.854,0.252,1.111,1.603,1.111
			c0.115,0,0.52-0.015,0.593-0.015c1.257,0,1.789,0.537,2.014,0.986c0.636,1.271-0.591,3.072-0.982,3.594
			c-0.049,0.065-0.103,0.145-0.164,0.234C149.193,114.049,147.001,117.234,139.244,117.234z"/>
		<path d="M141.671,104.615c2.399,0,4.186,1.17,4.412,1.927c0.355,1.187,0.148,2.26,2.476,2.26c0.126,0,0.259-0.003,0.399-0.01
			c0.066-0.003,0.131-0.005,0.193-0.005c2.49,0,1.163,2.404,0.432,3.38c-0.694,0.926-2.354,4.317-10.339,4.317
			c-0.638,0-1.315-0.021-2.036-0.067c-9.75-0.625-0.75-9.875-0.75-9.875C138.282,105.112,140.106,104.615,141.671,104.615
			 M141.671,103.115c-2.142,0-4.264,0.777-6.139,2.246l-0.079,0.063l-0.07,0.072c-0.902,0.928-5.335,5.739-3.939,9.364
			c0.704,1.83,2.611,2.857,5.669,3.054c0.733,0.047,1.45,0.07,2.132,0.07c8.151,0,10.506-3.42,11.392-4.708
			c0.056-0.08,0.104-0.151,0.147-0.209c0.585-0.78,1.858-2.769,1.053-4.379c-0.262-0.523-0.958-1.401-2.685-1.401
			c-0.084,0-0.171,0.002-0.262,0.007c-0.116,0.005-0.227,0.008-0.331,0.008c-0.443,0-0.665-0.05-0.756-0.079
			c-0.037-0.105-0.081-0.299-0.115-0.448c-0.048-0.215-0.1-0.438-0.168-0.663C147.024,104.458,144.4,103.115,141.671,103.115
			L141.671,103.115z"/>
	</g>
</g>
</svg>
