<?xml version="1.0" encoding="utf-8"?>
<!-- Generator: Adobe Illustrator 16.0.0, SVG Export Plug-In . SVG Version: 6.00 Build 0)  -->
<!DOCTYPE svg PUBLIC "-//W3C//DTD SVG 1.1//EN" "http://www.w3.org/Graphics/SVG/1.1/DTD/svg11.dtd">
<svg version="1.1" xmlns="http://www.w3.org/2000/svg" xmlns:xlink="http://www.w3.org/1999/xlink" x="0px" y="0px"
	 width="1994.558px" height="2081.202px" viewBox="0 0 1994.558 2081.202" enable-background="new 0 0 1994.558 2081.202"
	 xml:space="preserve">
<defs>
	<clipPath id="clipping">
		<path fill="#6182C1" d="M-80.134-30.429v2174.387h2148V-30.429H-80.134z M1704.81,1120.37
			c-30.107,175.136-123.238,328.698-255.184,436.453l-0.001-0.002l-316.957,542.13H878.11l-289.973-504.752l-0.003,0.008
			c-177.193-120.849-297.81-318.644-313.861-545.356h0.01L-19.116,537.163L129.367,345.99h552.155l-0.423,0.202
			c94.616-45.632,200.708-71.205,312.766-71.205c111.89,0,217.832,25.497,312.341,71.002h593.772l125.401,226.047l-320.583,548.331
			L1704.81,1120.37z"/>

			<animateTransform attributeType="xml"
                    attributeName="transform"
                    type="rotate"
                    from="0 993.866 997.064"
                    to="-360 993.866 997.064"
                    dur="25s"
                    repeatCount="indefinite"/>
	</clipPath>
</defs>
<g id="shading" fill="#FFFFFF">
	<g clip-path="url(#clipping)" >
		<polyline points="993.827,0 972.181,273.542 1015.474,273.542 		"/>
		<polyline points="893.207,5.101 899.332,279.43 942.403,275.052 		"/>
		<polyline points="793.617,20.35 827.451,292.653 869.859,283.942 		"/>
		<polyline points="696.08,45.592 757.275,313.078 798.586,300.124 		"/>
		<polyline points="601.595,80.566 689.526,340.494 729.314,323.429 		"/>
		<polyline points="511.132,124.916 624.895,374.62 662.754,353.619 		"/>
		<polyline points="425.616,178.187 564.046,415.107 599.588,390.385 		"/>
		<polyline points="345.926,239.832 507.604,461.539 540.464,433.35 		"/>
		<polyline points="272.878,309.219 456.146,513.44 485.987,482.072 		"/>
		<polyline points="207.221,385.636 410.201,570.279 436.716,536.055 		"/>
		<polyline points="149.626,468.302 370.238,631.473 393.157,594.743 		"/>
		<polyline points="100.688,556.367 336.668,696.395 355.755,657.534 		"/>
		<polyline points="60.904,648.93 309.834,764.377 324.894,723.787 		"/>
		<polyline points="30.686,745.042 290.013,834.725 300.891,792.82 		"/>
		<polyline points="10.339,843.716 277.407,906.717 283.992,863.926 		"/>
		<polyline points="0.076,943.943 272.146,979.614 274.369,936.377 		"/>
		<polyline points="0,1044.693 274.283,1052.67 272.122,1009.43 		"/>
		<polyline points="10.112,1144.935 283.796,1125.135 277.273,1082.335 		"/>
		<polyline points="30.309,1243.64 300.587,1196.267 289.771,1154.346 		"/>
		<polyline points="60.384,1339.797 324.486,1265.335 309.486,1224.724 		"/>
		<polyline points="100.027,1432.42 355.247,1331.634 336.217,1292.748 		"/>
		<polyline points="148.834,1520.56 392.554,1394.482 369.689,1357.72 		"/>
		<polyline points="206.303,1603.312 436.025,1453.235 409.56,1418.974 		"/>
		<polyline points="271.846,1679.828 485.215,1507.292 455.42,1475.882 		"/>
		<polyline points="344.79,1749.325 539.618,1556.098 506.8,1527.862 		"/>
		<polyline points="424.388,1811.089 598.678,1599.15 563.174,1574.379 		"/>
		<polyline points="509.823,1864.489 661.788,1636.013 623.961,1614.957 		"/>
		<polyline points="600.22,1908.976 728.303,1666.304 688.541,1649.182 		"/>
		<polyline points="694.653,1944.092 797.54,1689.714 756.25,1676.699 		"/>
		<polyline points="792.152,1969.48 868.789,1706.001 826.395,1697.229 		"/>
		<polyline points="891.719,1984.881 941.319,1715.001 898.256,1710.562 		"/>
		<polyline points="992.332,1990.133 1014.388,1716.62 971.096,1716.558 		"/>
		<polyline points="1092.96,1985.184 1087.247,1710.843 1044.169,1715.159 		"/>
		<polyline points="1192.573,1970.084 1159.147,1697.728 1116.728,1706.378 		"/>
		<polyline points="1290.147,1944.989 1229.353,1677.409 1188.025,1690.304 		"/>
		<polyline points="1384.686,1910.157 1297.144,1650.095 1257.332,1667.103 		"/>
		<polyline points="1475.217,1865.943 1361.825,1616.066 1323.938,1637.012 		"/>
		<polyline points="1560.812,1812.801 1422.735,1575.671 1387.159,1600.34 		"/>
		<polyline points="1640.596,1751.276 1479.246,1529.324 1446.348,1557.463 		"/>
		<polyline points="1713.748,1681.999 1530.782,1477.5 1500.897,1508.822 		"/>
		<polyline points="1779.521,1605.68 1576.813,1420.73 1550.249,1454.914 		"/>
		<polyline points="1837.239,1523.1 1616.868,1359.597 1593.896,1396.291 		"/>
		<polyline points="1886.311,1435.107 1650.536,1294.726 1631.393,1333.555 		"/>
		<polyline points="1926.234,1342.604 1677.471,1226.783 1662.354,1267.349 		"/>
		<polyline points="1956.597,1246.538 1697.398,1156.466 1686.459,1198.352 		"/>
		<polyline points="1977.091,1147.893 1710.113,1084.493 1703.466,1127.271 		"/>
		<polyline points="1987.505,1047.682 1715.484,1011.604 1713.197,1054.834 		"/>
		<polyline points="1987.732,946.932 1713.458,938.545 1715.554,981.785 		"/>
		<polyline points="1977.77,846.675 1704.054,866.065 1710.511,908.873 		"/>
		<polyline points="1957.72,747.938 1687.37,794.909 1698.121,836.843 		"/>
		<polyline points="1927.79,651.736 1663.574,725.803 1678.511,766.436 		"/>
		<polyline points="1888.284,559.053 1632.914,659.459 1651.883,698.373 		"/>
		<polyline points="1839.61,470.841 1595.702,596.555 1618.508,633.351 		"/>
		<polyline points="1782.266,388.002 1552.32,537.735 1578.73,572.038 		"/>
		<polyline points="1716.837,311.387 1503.213,483.604 1532.955,515.061 		"/>
		<polyline points="1643.997,241.78 1448.882,434.717 1481.652,463.005 		"/>
		<polyline points="1564.491,179.896 1389.888,391.574 1425.35,416.403 		"/>
		<polyline points="1479.138,126.37 1326.831,354.618 1364.624,375.733 		"/>
		<polyline points="1388.808,81.748 1260.362,324.227 1300.098,341.413 		"/>
		<polyline points="1294.428,46.489 1191.162,300.713 1232.431,313.793 		"/>
		<polyline points="1196.967,20.954 1119.937,284.318 1162.317,293.158 		"/>
		<polyline points="1097.424,5.406 1047.419,275.208 1090.477,279.718 		"/>
	</g>
	
	<animateTransform attributeType="xml"
                    attributeName="transform"
                    type="rotate"
                    from="0 993.866 997.064"
                    to="360 993.866 997.064"
                    dur="25s"
                    repeatCount="indefinite"/>


</g>
<g id="logo" fill="#FFFFFF">
	<line stroke="#FFFFFF" stroke-width="45" stroke-miterlimit="10" x1="1643.391" y1="742.219" x2="1645.766" y2="742.219"/>
	<g>
		<path d="M1538.985,546.388h455.572L1887.273,368.49h-568.33C1403.788,412.539,1478.587,473.282,1538.985,546.388z"/>
		<path d="M668.787,368.49H147.722l199.694,341.594C412.703,562.972,526.638,442.289,668.787,368.49z"/>
	</g>
	<g>
		<path d="M1143.044,1688.936l-228.436,392.267l204.987-4.471l301.597-515.856
			C1340.329,1622.37,1245.838,1666.837,1143.044,1688.936z"/>
		<path d="M1700.884,997.065c0,32.774-2.236,65.024-6.546,96.615l296.336-506.858h-420.653
			c38.543,54.132,69.653,113.929,91.859,177.896h19.38l-12.373,21.247C1689.678,852.636,1700.884,923.54,1700.884,997.065z"/>
	</g>
	<g>
		<path d="M286.848,997.065c0-88.763,16.331-173.707,46.143-251.991l-220.956-384.09L6.951,537.37l280.467,488.204
			C287.043,1016.117,286.848,1006.614,286.848,997.065z"/>
		<path d="M993.866,1704.727c-139.832,0-270.178-40.636-379.906-110.745l265.962,462.957l209.068-358.576
			C1057.876,1702.551,1026.125,1704.727,993.866,1704.727z"/>
	</g>
	<g>
		<path d="M1210.404,1194.357c-19.181-10.956-40.521-16.747-61.713-16.747c-1.929,0-3.878,0.049-5.795,0.146
			c-6.629,0.335-12.892,0.926-18.949,1.497c-8.72,0.823-16.955,1.6-25.738,1.601c-3.767,0-7.337-0.143-10.916-0.434
			c-25.705-2.095-45.507-3.874-64.204-5.77c-49.538-5.024-93.868-10.64-135.521-17.166l-0.554-0.086l-0.557,0.068
			c-3.161,0.392-7.639,0.693-12.824,1.042c-30.216,2.036-80.787,5.443-81.54,36.509c-0.635,26.198,70.731,56.5,81.521,60.167
			c33.041,11.227,72.231,16.769,119.811,16.94c16.331,0.063,32.454,1.849,48.046,3.575c15.877,1.759,32.294,3.576,48.932,3.576
			c11.378,0,21.847-0.835,32.005-2.554c36.954-6.253,78.373-15.777,105.393-39.012c4.262-3.666,6.24-8.451,5.725-13.839
			C1232.286,1210.963,1217.128,1198.198,1210.404,1194.357z"/>
		<path d="M1424.982,525.464c1.346,0.03,2.584,0.14,3.727,0.319C1430.645,525.758,1431.408,525.608,1424.982,525.464z"/>
		<path d="M1121.639,1307.104c-33.823-5.16-68.465-8.259-101.965-11.256c-34.736-3.107-70.656-6.32-105.674-11.834
			c-2.841-0.447-7.6-0.715-12.728-0.715c-12.988,0-44.1,1.556-52.449,15.959c-2.16,3.728-3.695,9.988,1.264,18.648
			c11.09,19.363,55.073,53.651,78.401,57.638c19.55,3.337,39.869,4.752,59.521,6.121c10.472,0.729,21.3,1.483,31.779,2.518
			c5.898,0.582,11.832,1.223,17.571,1.842c20.36,2.195,39.592,4.271,59.8,4.271c3.354,0,6.677-0.061,9.934-0.179
			c0.564,0.157,1.236,0.25,2.035,0.252l0.534,2.8l4.15-1.102c2.409-0.64,5.556-1.273,9.198-2.007
			c19.336-3.893,51.697-10.407,49.08-35.325C1169.577,1330.838,1148.831,1311.251,1121.639,1307.104z"/>
		<path d="M1062.535,1429.168c-4.038-1.833-7.853-3.563-10.3-5.606c-1.436-1.199-2.772-2.332-4.033-3.401
			c-12.143-10.29-18.237-15.455-38.482-16.453c-7.063-0.349-14.176-1.201-21.054-2.026c-9.112-1.093-18.535-2.224-28.088-2.224
			c-3.517,0-6.808,0.147-10.061,0.451c-12.362,1.152-41.311,3.852-39.518,28.504c1.057,14.511,14.066,21.667,24.52,27.417
			c3.211,1.768,6.243,3.436,8.806,5.191c10.944,7.504,23.408,8.539,35.247,8.539c2.933,0,5.892-0.07,8.754-0.137
			c2.772-0.066,5.639-0.133,8.39-0.133c1.964,0,3.705,0.033,5.325,0.102c12.929,0.555,25.965,2.619,38.572,4.617
			c3.87,0.613,7.743,1.227,11.626,1.801l1.133,0.168l1.05-0.457c1.62-0.705,3.516-1.398,5.523-2.133
			c9.612-3.516,22.777-8.33,23.146-21.967C1083.434,1438.651,1071.847,1433.394,1062.535,1429.168z"/>
		<path d="M1180.612,572.008C1181.735,573.81,1179.112,573.578,1180.612,572.008c-52.468,54.91-83.876,155.573-57.509,228.687
			c8.37,23.211,16.739,10.074,31.654-2.408c16.266-13.612,32.431-27.338,48.432-41.261c16.681-14.513,33.296-29.102,49.906-43.693
			c16.461-14.46,41.066-29.411,51.352-48.894c-26.281-10.712-50.078-14.222-74.315-31.168
			C1205.224,615.854,1195.978,596.653,1180.612,572.008z"/>
		<path d="M1067.7,776.394c0.046,1.604,0.086,3.218,0.124,4.837C1067.795,779.888,1067.755,778.296,1067.7,776.394z"/>
		<path d="M1448.006,528.464c1.664,10.208-0.332,22.928-3.59,28.904c-13.52,24.792-23.197,52.368-46.578,69.992
			c-18.473,13.926-46.09,17.526-62.779,32.331c-21.393,18.978-17.703,52.28-14.982,77.629c5.43,50.551,52.707,89.517,42.002,141.508
			c-6.18,30.005-25.977,52.014-41.064,77.589c-7.445,12.624-17.969,23.58-27.326,34.787c-4.9,5.852-9.773,11.728-14.617,17.628
			c-6.508,7.953-7.711,0.67-14.24-0.738c-52.492-11.318-85.192-71.614-140.089-73.881c-28.227-1.165-49.741,22.675-67.314,41.601
			c-14.511,15.627-32.901,52.181-52.908,59.331c0.186-15.244,15.927-28.728,20.928-43.125
			c-15.794,4.898-29.425,16.218-44.111,23.767c-18.298,9.405-28.139,3.09-46.215,5.203c-29.103,3.402-65.378-43.757-77.444-65.814
			c-17.128-31.309-39.695-59.26-71.099-77.165c-14.277-8.141-32.109-18.735-49.183-14.292
			c-16.295,4.241-25.406,22.327-41.435,25.581c1.092-25.211,32.331-44.609,49.604-59.164c11.035-9.298,20.995-18.629,36.375-17.512
			c12.576,0.914,27.839,14.221,38.799,12.939c18.199-2.129,51.345-45.536,61.041-60.724c18.545-29.046,21.239-58.696,5.911-89.506
			c-11.82-23.756-34.359-38.941-46.626-62.5c-2.764-5.308-6.245-26.695-15.021-18.14c-12.12,11.817-23.613,24.228-35.22,36.543
			c-23.363,24.791-47.87,49.079-67.666,76.897c-19.013,26.719-21.059,60.765-31.783,91.623
			c-4.036,11.613-7.905,23.812-13.832,34.627c-4.45,8.12,0.058,17.553-3.644,22.664c-19.586,27.054-36.226,57.389-58.861,82.017
			c-23.351,25.409,52.875,24.217,65.063,19.268c9.357-3.799,53.655-36.837,58.067-22.256c4.311,14.243-48.843,49.297-59.146,56.808
			c-24.621,17.947-55.002,28.262-84.888,17.634c-27.722-9.857-57.803-40.2-87.769-39.443c-34.002,0.858-53.076,34.433-81.655,43.874
			c3.444-33.09,51.102-69.921,79.66-81.041c14.327-5.578,34.546-15.524,49.668-7.942c18.576,9.314,32.557,22.815,46.523,2.724
			c21.28-30.612,37.596-66.827,49.195-102.258c11.467-35.027,23.483-85.262,17.21-122.153
			c-5.518-32.446-40.896-54.687-67.268-69.627c-12.824-7.265-33.596-16.705-48.692-15.702
			c-15.557,1.034-26.059,16.192-36.347,25.892c-14.08,13.274-19.958,14.676-26.334,34.348
			c-6.387,19.709-15.328,40.098-18.729,60.552c-7.303,43.926,18.866,70.372,28.583,109.514
			c-36.573-17.159-41.369-78.785-35.145-113.063c4.235-23.321,10.773-46.202,19.325-68.305c4.225-10.919,8.236-24.378,15.515-33.718
			c5.598-7.184,15.031-10.586,21.371-17.662c15.256-17.027,23.844-27.707,45.414-37.114c7.107-3.099,16.095,7.25,22.289,9.922
			c10.791,4.655,22.176,7.12,33.293,10.787c23.684,7.812,41.323,26.037,61.184,40.182c20.934,14.909,23.354,39.528,32.396,61.604
			c32.523-30.827,61.907-65.223,92.276-98.168c23.104-25.063,55.317-71.697,88.722-80.929c-7.082,19.07-20.736,29.925-7.784,50.505
			c12.978,20.62,34.139,36.74,42.353,60.185c8.767,25.012,15.592,38.771,6.47,65.854c-9.483,28.155-26.394,52.046-45.325,74.613
			c-16.275,19.399-33.014,35.988-52.207,52.555c-11.946,10.312,31.556,43.855,39.312,55.151
			c27.021,39.348,58.484,107.76,117.277,97.186c58.248-10.477,83.07-69.02,134.16-88.997
			c63.988-25.021,92.055,33.738,145.434,54.127c28.277,10.8,41.98,5.177,46.764-26.729c4.152-27.703-7.082-46.552-23.564-66.121
			c-13.219-15.695-17.66-43.027-20.961-62.504c-5.189-30.631,0.92-52.722,3.764-82.356c-25.879,11.363-51.78,40.263-72.616,59.344
			c-22.87,20.945-45.168,42.493-68.124,63.358c-10.412,9.464-21.706,18.537-31.097,29.046
			c-11.855,13.269-16.823,15.531-26.999-1.819c-13.213-22.529-13.251-49.51-13.848-74.955c0.496,22.823-2.425-30.628-0.124-4.837
			c-4.448-49.856,22.576-113.509,49.476-154.321c14.327-21.738,32.286-41.006,51.409-58.579
			c12.943-11.895,42.42-45.984,60.516-46.109c-0.787,12.014-8.815,14.297,0.148,26.521c6.621,9.03,13.904,17.6,22.013,25.329
			c18.154,17.301,40.42,29.569,65.152,34.261c9.92,1.881,26.895,6.466,36.662,2.43c10.477-4.327,14.199-24.423,19.232-33.541
			c12.518-22.673,31.941-48.259,56.988-57.629c1.1-0.411,2.143-0.713,3.133-0.916c-115.865-105.217-269.726-169.339-438.563-169.339
			c-360.4,0-652.563,292.163-652.563,652.564s292.163,652.566,652.563,652.566c360.401,0,652.563-292.165,652.563-652.566
			C1646.43,813.186,1570.371,647.077,1448.006,528.464z M1319.73,1253.694c-6.535,16.111-21.564,21.3-37.479,26.792
			c-6.063,2.094-12.334,4.258-18.242,7.075c-10.832,5.163-23.466,7.69-35.685,10.134c-14.607,2.921-29.71,5.941-42.33,13.494
			l-4.296,2.572l3.457,3.622c9.846,10.317,22.785,14.377,35.298,18.303c17.762,5.572,33.101,10.385,39.587,31.153
			c3.135,10.038,1.785,19.124-4.01,27.006c-11.364,15.456-38.288,23.796-57.851,23.796c-1.237,0-2.455-0.033-3.619-0.099
			l-0.113-0.007h-0.113c-4.892,0-9.783,0.025-14.676,0.051c-4.878,0.025-9.756,0.051-14.633,0.051
			c-8.476,0-19.663-0.066-31.035-0.588c-0.376-0.017-9.347-0.423-19.381-0.423c-26.135,0-28.908,2.501-29.974,6.035
			c-0.337,1.12-0.718,3.993,3.028,6.478c8.245,5.467,20.347,7.934,33.158,10.545c22.094,4.502,44.939,9.158,48.867,29.188
			c1.652,8.426,0.438,14.975-3.714,20.02c-7.141,8.678-23.124,13.078-47.505,13.08c-9.883,0-19.2-0.715-26.003-1.234l-0.147-0.012
			c-3.585-0.275-7.584-0.645-11.818-1.035c-12.044-1.111-27.034-2.494-41.8-2.494c-35.291,0-57.971,8.117-69.333,24.818
			c-6.517,9.58,3.035,21.326,10.01,29.902c2.255,2.773,4.396,5.406,5.473,7.295c-0.775,0.184-2.11,0.377-4.301,0.377
			c-7.34,0-20.049-2.145-35.787-6.037l-0.65-0.16c-15.826-3.859-49.521-19.607-59.482-40.188
			c-3.479-7.189-3.631-14.039-0.465-20.939c1.327-2.889,6.822-6.389,11.67-9.475c7.507-4.779,14.598-9.293,14.238-15.74
			c-0.448-8.031-14.244-14.787-41.254-25.197c-4.542-1.752-8.465-3.264-10.167-4.125c-16.808-8.522-27.118-18.937-33.43-33.771
			c-4.506-10.59,3.143-17.487,15.324-26.802c4.749-3.631,9.234-7.061,12.303-10.94l2.489-3.147l-3.154-2.479
			c-8.287-6.513-17.287-12.233-25.99-17.766c-2.777-1.765-5.552-3.528-8.301-5.314c-4.736-3.078-9.623-7.667-14.35-12.104
			c-6.132-5.758-12.472-11.711-19.197-15.164c-10.876-5.584-21.783-20.33-20.685-33.382c0.71-8.435,15.515-17.927,26.324-24.857
			c4.561-2.924,8.499-5.449,11.34-7.775l3.487-2.854l-3.249-3.124c-6.082-5.847-17.968-12.916-31.729-21.103
			c-26.954-16.033-63.869-37.992-62.558-56.299c0.6-8.365,9.553-16.197,26.611-23.279c18.651-7.743,39.53-11.508,63.827-11.508
			c27.146,0,55.331,4.672,82.589,9.19c22.331,3.702,45.422,7.529,67.29,8.606c17.192,0.847,35.169,2.371,52.553,3.845
			c27.809,2.358,56.563,4.796,84.841,4.796c31.327,0,58.186-3.067,82.108-9.378c17.234-4.548,58.07-17.446,65.006-38.947
			c2.543-7.882,0.504-15.92-6.059-23.892c-10.571-12.844-21.595-21.039-33.697-25.053c-2.154-0.715-5.726-1.363-10.248-2.184
			c-6.993-1.269-15.696-2.848-22.61-5.28c-5.877-2.067-9.459-4.496-9.734-6.572c0.478-0.216,1.732-0.61,4.531-0.61
			c28.195,0,125.918,38.9,137.373,48.781l0.383,0.331c10.75,9.271,25.473,21.969,26.26,34.59c0.301,4.819-1.49,9.306-5.473,13.717
			c-12.098,13.396-30.125,19.131-47.559,24.678c-12.025,3.825-24.458,7.78-34.991,14.233l-3.652,2.238l2.482,3.491
			c7.205,10.132,20.956,14.578,34.253,18.877c9.424,3.048,19.17,6.198,25.811,11.214l0.242,0.183
			C1299.227,1220.319,1325.287,1239.995,1319.73,1253.694z"/>
		<path d="M1424.982,525.464c-25.424,10.459-57.906,47.068-58.586,75.159c18.432-0.849,47.717-13.109,59.707-27.9
			c8.865-10.936,25.486-43.332,2.605-46.939C1426.986,525.806,1424.338,525.729,1424.982,525.464z"/>
	</g>
	
		<ellipse fill="none" stroke="#FFFFFF" stroke-width="16" stroke-miterlimit="10" cx="993.866" cy="997.065" rx="676.063" ry="676.678"/>
	<path fill="#FFFFFF" d="M-1140.134,526.958c-6.449,0-6.449,10,0,10S-1133.685,526.958-1140.134,526.958z"/>
</g>
</svg>
